<?xml version="1.0" encoding="UTF-8" standalone="no"?>
<!-- Created with Inkscape (http://www.inkscape.org/) -->

<svg
   width="100mm"
   height="100mm"
   viewBox="0 0 99.999999 100"
   version="1.1"
   id="svg1"
   inkscape:version="1.4.2 (2aeb623e1d, 2025-05-12)"
   sodipodi:docname="favicon.svg"
   xmlns:inkscape="http://www.inkscape.org/namespaces/inkscape"
   xmlns:sodipodi="http://sodipodi.sourceforge.net/DTD/sodipodi-0.dtd"
   xmlns:xlink="http://www.w3.org/1999/xlink"
   xmlns="http://www.w3.org/2000/svg"
   xmlns:svg="http://www.w3.org/2000/svg">
  <sodipodi:namedview
     id="namedview1"
     pagecolor="#ffffff"
     bordercolor="#000000"
     borderopacity="0.25"
     inkscape:showpageshadow="2"
     inkscape:pageopacity="0.0"
     inkscape:pagecheckerboard="0"
     inkscape:deskcolor="#d1d1d1"
     inkscape:document-units="mm"
     inkscape:zoom="1.0431611"
     inkscape:cx="232.94581"
     inkscape:cy="183.09732"
     inkscape:window-width="1920"
     inkscape:window-height="1011"
     inkscape:window-x="3000"
     inkscape:window-y="300"
     inkscape:window-maximized="1"
     inkscape:current-layer="layer1" />
  <defs
     id="defs1">
    <linearGradient
       id="linearGradient1"
       inkscape:collect="always">
      <stop
         style="stop-color:#c1272d;stop-opacity:1;"
         offset="0.03871863"
         id="stop1" />
      <stop
         style="stop-color:#ed1c24;stop-opacity:1;"
         offset="0.14274256"
         id="stop4" />
      <stop
         style="stop-color:#f15a29;stop-opacity:1;"
         offset="0.26613685"
         id="stop3" />
      <stop
         style="stop-color:#fbb040;stop-opacity:1;"
         offset="0.36418629"
         id="stop5" />
      <stop
         style="stop-color:#fff200;stop-opacity:1;"
         offset="0.4619734"
         id="stop6" />
      <stop
         style="stop-color:#8dc63f;stop-opacity:1;"
         offset="0.58763754"
         id="stop7" />
      <stop
         style="stop-color:#00a651;stop-opacity:1;"
         offset="0.67768145"
         id="stop8" />
      <stop
         style="stop-color:#00a99d;stop-opacity:1;"
         offset="0.77314579"
         id="stop9" />
      <stop
         style="stop-color:#0071bc;stop-opacity:1;"
         offset="0.88010234"
         id="stop10" />
      <stop
         style="stop-color:#662d91;stop-opacity:1;"
         offset="1"
         id="stop2" />
    </linearGradient>
    <linearGradient
       inkscape:collect="always"
       xlink:href="#linearGradient1"
       id="linearGradient11"
       gradientUnits="userSpaceOnUse"
       x1="21.404346"
       y1="65.292213"
       x2="192.17216"
       y2="65.292213"
       gradientTransform="matrix(1.2932537,0,0,1.2932537,0.21876322,9.4599912)" />
    <linearGradient
       inkscape:collect="always"
       xlink:href="#linearGradient1"
       id="linearGradient12"
       gradientUnits="userSpaceOnUse"
       x1="21.404346"
       y1="65.292213"
       x2="192.17216"
       y2="65.292213"
       gradientTransform="matrix(1.2932537,0,0,1.2932537,-129.90967,29.084757)" />
    <linearGradient
       inkscape:collect="always"
       xlink:href="#linearGradient1"
       id="linearGradient13"
       gradientUnits="userSpaceOnUse"
       gradientTransform="matrix(1.2932537,0,0,1.2932537,-51.933507,19.611589)"
       x1="21.404346"
       y1="65.292213"
       x2="192.17216"
       y2="65.292213" />
  </defs>
  <g
     inkscape:label="Layer 1"
     inkscape:groupmode="layer"
     id="layer1"
     transform="translate(-21.404346,-61.138989)">
    <g
       id="g13"
       transform="translate(-1.5218168,4.3118142)">
      <path
         style="font-size:7.31845px;line-height:88%;font-family:Calistoga;-inkscape-font-specification:'Calistoga, Normal';fill:url(#linearGradient11);stroke-width:1.49049;paint-order:markers fill stroke"
         d="m 28.344849,96.450094 c -0.08204,-0.164042 -0.157745,-0.391198 -0.227151,-0.681455 -0.0631,-0.296557 -0.116735,-0.605727 -0.160903,-0.927513 -0.03785,-0.321813 -0.05679,-0.608891 -0.05679,-0.861291 h 0.94646 c 0.100945,0.536328 0.299714,0.95592 0.596271,1.25879 0.302867,0.302871 0.653059,0.454314 1.050573,0.454314 0.195602,0 0.347035,-0.03782 0.454302,-0.113484 0.113571,-0.08198 0.195601,-0.179836 0.246079,-0.293422 0.05048,-0.113485 0.07573,-0.220827 0.07573,-0.321784 0,-0.208229 -0.06941,-0.388049 -0.20822,-0.539478 -0.138811,-0.151457 -0.315483,-0.287107 -0.530015,-0.406992 -0.208222,-0.126286 -0.419598,-0.239771 -0.634129,-0.340713 -0.555258,-0.271328 -0.993786,-0.580513 -1.315582,-0.927541 -0.321794,-0.353342 -0.482695,-0.795027 -0.482695,-1.325041 0,-0.384898 0.09463,-0.709848 0.283939,-0.974861 0.189282,-0.271314 0.44168,-0.479528 0.757169,-0.624656 0.321797,-0.145143 0.681452,-0.217693 1.078964,-0.217693 0.182988,0 0.397516,0.01898 0.643596,0.05682 0.252388,0.03782 0.457454,0.100975 0.615199,0.189299 l 0.804494,-0.246085 c 0.08835,0.145129 0.148272,0.337578 0.179827,0.57735 0.03785,0.233455 0.05993,0.476377 0.06625,0.728776 0.01266,0.252385 0.01894,0.482692 0.01894,0.69092 v 0.141964 h -0.785564 c -0.1325,-0.536327 -0.318641,-0.899133 -0.55841,-1.088433 -0.239773,-0.1956 -0.49847,-0.293393 -0.776099,-0.293393 -0.258699,0 -0.451147,0.07566 -0.577343,0.227143 -0.119899,0.145129 -0.179828,0.328113 -0.179828,0.548942 0,0.201914 0.05362,0.372284 0.160903,0.511099 0.113571,0.138799 0.258699,0.261849 0.435373,0.36912 0.176672,0.100975 0.362811,0.201914 0.558413,0.302871 0.214531,0.100975 0.438527,0.217677 0.671987,0.350178 0.233458,0.126285 0.447991,0.274492 0.643594,0.444849 0.20191,0.170356 0.36281,0.37227 0.482694,0.605727 0.126186,0.233457 0.189283,0.507935 0.189283,0.823419 0,0.347043 -0.08835,0.665692 -0.265009,0.955934 -0.176673,0.283928 -0.429063,0.514234 -0.757168,0.690906 -0.328108,0.170371 -0.725621,0.255549 -1.192541,0.255549 -0.214533,0 -0.451147,-0.02517 -0.709848,-0.07566 -0.252389,-0.04416 -0.523707,-0.126285 -0.813957,-0.246085 z m 6.540033,-0.07566 c -0.473232,0 -0.858127,-0.129306 -1.154683,-0.388035 -0.290248,-0.265013 -0.435373,-0.602591 -0.435373,-1.012733 0,-0.410128 0.132499,-0.741392 0.397514,-0.993777 0.27132,-0.252385 0.687763,-0.378584 1.249329,-0.378584 0.182987,0 0.375429,0.01898 0.577341,0.05682 0.201913,0.0315 0.365966,0.08198 0.49216,0.151443 v -1.25879 c 0,-0.265015 -0.06941,-0.448 -0.20822,-0.548957 -0.1325,-0.107156 -0.29656,-0.160892 -0.49216,-0.160892 -0.208221,0 -0.378586,0.05048 -0.511089,0.151428 0.126185,0.0443 0.217685,0.113629 0.274474,0.208214 0.05679,0.08832 0.08518,0.186136 0.08518,0.293407 0,0.208213 -0.07573,0.375434 -0.22715,0.50162 -0.145134,0.119813 -0.32495,0.179849 -0.539481,0.179849 -0.239771,0 -0.432218,-0.06947 -0.577344,-0.208228 -0.145116,-0.145143 -0.217686,-0.324963 -0.217686,-0.539477 0,-0.214543 0.07256,-0.416442 0.217686,-0.605742 0.145134,-0.1956 0.369121,-0.356506 0.671988,-0.482691 0.309177,-0.126286 0.706691,-0.1893 1.192542,-0.1893 1.268256,0 1.902386,0.501606 1.902386,1.504861 v 2.508131 c 0,0.30287 0.145135,0.485841 0.435374,0.54894 v 0.302871 c -0.08204,0.119814 -0.220841,0.211379 -0.416444,0.274479 -0.195603,0.05682 -0.384894,0.08529 -0.567877,0.08529 -0.429061,0 -0.731929,-0.148293 -0.908602,-0.444835 -0.126186,0.113485 -0.293403,0.217679 -0.501626,0.312335 -0.20822,0.08832 -0.454303,0.132471 -0.738239,0.132471 z m 0.6152,-0.76662 c 0.08835,0 0.179828,-0.01295 0.274472,-0.03782 0.09463,-0.0315 0.173514,-0.06948 0.236616,-0.113629 v -0.918077 c -0.0631,-0.04401 -0.145114,-0.08198 -0.246078,-0.113485 -0.09463,-0.0315 -0.189303,-0.04733 -0.283942,-0.04733 -0.16406,0 -0.306021,0.05365 -0.425906,0.160892 -0.119885,0.100976 -0.179829,0.261849 -0.179829,0.482692 0,0.170357 0.05679,0.312335 0.170356,0.425906 0.113586,0.107157 0.265008,0.160907 0.454301,0.160907 z m 3.189563,0.70037 C 38.544511,96.163071 38.471956,95.9927 38.471956,95.7971 c 0.189283,0 0.321798,-0.04099 0.397514,-0.122977 0.08204,-0.08198 0.123036,-0.214543 0.123036,-0.397513 v -3.132787 h -0.57734 V 91.55701 c 0.138813,-0.0315 0.249232,-0.06947 0.33126,-0.113628 0.08201,-0.04401 0.157745,-0.09148 0.227151,-0.141964 -0.02525,-0.145129 -0.04417,-0.277628 -0.05678,-0.397514 -0.01266,-0.119957 -0.01894,-0.258714 -0.01894,-0.416442 0,-0.656212 0.173513,-1.145219 0.520553,-1.467018 0.347035,-0.328114 0.817111,-0.492156 1.410225,-0.492156 0.302871,0 0.552104,0.06314 0.747706,0.1893 0.195604,0.119813 0.340727,0.268149 0.435374,0.444835 0.09463,0.17667 0.141977,0.343877 0.141977,0.50162 0,0.233456 -0.0631,0.429056 -0.189302,0.586813 -0.119899,0.157742 -0.283938,0.236606 -0.49216,0.236606 -0.189282,0 -0.356501,-0.06616 -0.501623,-0.198749 -0.145116,-0.1388 -0.217687,-0.296557 -0.217687,-0.473228 0,-0.07566 0.01569,-0.160892 0.04733,-0.25555 0.03154,-0.100965 0.110422,-0.198763 0.236614,-0.293405 -0.01894,-0.0315 -0.05362,-0.05682 -0.104107,-0.07566 -0.04417,-0.02517 -0.08518,-0.03782 -0.123035,-0.03782 -0.100944,0 -0.195603,0.05048 -0.283938,0.151428 -0.08835,0.09464 -0.160903,0.220856 -0.217685,0.378599 -0.05048,0.157743 -0.07573,0.324949 -0.07573,0.50162 0,0.189285 0.01569,0.369121 0.04733,0.539478 0.03786,0.170357 0.08204,0.309185 0.1325,0.416441 0.05048,0.100976 0.09466,0.151457 0.1325,0.151457 h 0.908604 c 0,0.1388 -0.0094,0.290243 -0.02839,0.454285 -0.01894,0.157743 -0.0631,0.290257 -0.1325,0.397528 h -0.804491 v 3.047594 c 0,0.138799 0.02208,0.255549 0.06625,0.350192 0.04417,0.08832 0.1325,0.154592 0.265009,0.198764 0.1325,0.03782 0.328106,0.05682 0.586806,0.05682 0,0.1956 -0.07256,0.365956 -0.217687,0.511085 z m 5.271766,0.08529 c -0.706694,0 -1.271415,-0.223993 -1.694168,-0.671992 -0.416443,-0.447985 -0.624665,-1.072655 -0.624665,-1.873996 0,-0.548942 0.104107,-1.022169 0.312331,-1.419682 0.208224,-0.403828 0.489007,-0.712999 0.842352,-0.927541 0.359655,-0.214529 0.766633,-0.321785 1.220936,-0.321785 0.567875,0 1.022177,0.167193 1.362903,0.50162 0.347036,0.3281 0.520555,0.791877 0.520555,1.391305 0,0.23977 -0.04101,0.451134 -0.12305,0.634119 -0.07573,0.176672 -0.236616,0.265015 -0.482696,0.265015 h -2.044354 c 0.01894,0.498469 0.132499,0.851811 0.340723,1.06004 0.214533,0.208214 0.49216,0.312335 0.832888,0.312335 0.214531,0 0.413287,-0.0315 0.596271,-0.09464 0.182987,-0.06947 0.353345,-0.164056 0.511088,-0.283957 0.05678,0.05048 0.100976,0.129307 0.1325,0.236621 0.03786,0.100976 0.05678,0.186151 0.05678,0.25555 0,0.100975 -0.07256,0.227143 -0.217684,0.378585 -0.138815,0.145128 -0.340726,0.274463 -0.605736,0.388049 -0.258698,0.113485 -0.571032,0.170357 -0.936995,0.170357 z m -0.709848,-3.142249 h 0.955924 c 0.107256,0 0.173514,-0.04099 0.198759,-0.122977 0.03154,-0.08198 0.04733,-0.182986 0.04733,-0.302871 0,-0.403828 -0.05048,-0.668828 -0.151431,-0.795027 -0.09464,-0.132471 -0.208223,-0.198764 -0.340727,-0.198764 -0.107257,0 -0.214529,0.04099 -0.321798,0.122978 -0.107257,0.08198 -0.195599,0.227156 -0.265007,0.435385 -0.06941,0.201913 -0.110421,0.489006 -0.12305,0.861276 z m 5.214994,1.504876 c -0.208224,0 -0.40698,-0.02215 -0.596272,-0.06616 v 0.02848 c 0,0.157743 0.05993,0.268164 0.17983,0.331263 0.126185,0.06314 0.343882,0.107157 0.653057,0.132472 0.801338,0.05682 1.403918,0.201913 1.80774,0.435356 0.410134,0.23347 0.615201,0.583663 0.615201,1.050577 0,0.246084 -0.06942,0.476376 -0.208221,0.690919 -0.138814,0.214528 -0.33126,0.400663 -0.577341,0.558406 -0.239771,0.157742 -0.514244,0.280792 -0.823421,0.369121 -0.309177,0.08832 -0.630975,0.13247 -0.965391,0.13247 -0.782409,0 -1.35344,-0.141963 -1.713095,-0.425906 -0.353347,-0.277628 -0.530019,-0.62782 -0.530019,-1.050576 0,-0.233443 0.07573,-0.444835 0.227151,-0.634121 0.157746,-0.189299 0.38174,-0.334413 0.671987,-0.435369 -0.138814,-0.100976 -0.227151,-0.214528 -0.265009,-0.340729 -0.03154,-0.126285 -0.04733,-0.265013 -0.04733,-0.416441 0,-0.100976 0.04101,-0.211378 0.12305,-0.331264 0.08201,-0.119958 0.208222,-0.211364 0.378585,-0.274463 -0.296559,-0.157743 -0.530018,-0.375436 -0.700381,-0.653078 -0.164062,-0.277614 -0.246081,-0.577335 -0.246081,-0.899134 0,-0.321799 0.07888,-0.612041 0.236615,-0.87074 0.157745,-0.265 0.391206,-0.476393 0.700381,-0.634121 0.309178,-0.157742 0.694073,-0.236621 1.154683,-0.236621 h 0.0094 c 0.05678,0 0.141979,0.0029 0.255543,0.0087 0.119887,0.0072 0.230308,0.01898 0.331264,0.03783 0.435372,0 0.766633,-0.0029 0.993784,-0.0087 0.23346,-0.01295 0.410132,-0.02518 0.530017,-0.03782 0.119886,-0.01295 0.236615,-0.02848 0.350191,-0.04731 0.06941,0 0.1199,0.04731 0.151431,0.141963 0.03154,0.08832 0.04733,0.173522 0.04733,0.25555 0,0.119958 -0.0284,0.220843 -0.08518,0.30287 -0.05679,0.08198 -0.151431,0.122979 -0.283937,0.122979 -0.05679,0 -0.160903,-0.0315 -0.312331,-0.09464 -0.151431,-0.06314 -0.29656,-0.119957 -0.435375,-0.170356 0.214532,0.170356 0.375431,0.365956 0.482695,0.586798 0.113572,0.220843 0.170358,0.429056 0.170358,0.62467 0,0.593114 -0.201914,1.044263 -0.605735,1.353433 -0.403824,0.309185 -0.962236,0.463763 -1.675237,0.463763 z m 0.160902,-0.62467 c 0.208221,0 0.353343,-0.110464 0.435372,-0.331264 0.08833,-0.220842 0.132499,-0.545792 0.132499,-0.974848 0,-0.353342 -0.05048,-0.605727 -0.15143,-0.757169 -0.09463,-0.151429 -0.23346,-0.227158 -0.416443,-0.227158 -0.208222,0 -0.353344,0.110465 -0.435373,0.331264 -0.08201,0.214528 -0.123036,0.511085 -0.123036,0.889684 0,0.347027 0.04417,0.612042 0.1325,0.795027 0.08835,0.182985 0.230307,0.274464 0.425911,0.274464 z m -0.889675,2.564901 c 0,0.265014 0.08204,0.489006 0.24608,0.671992 0.16406,0.182985 0.457455,0.274477 0.880208,0.274477 0.315487,0 0.53633,-0.0758 0.662523,-0.227156 0.126186,-0.151428 0.189282,-0.318649 0.189282,-0.50162 0,-0.145129 -0.06625,-0.2587 -0.198754,-0.340729 -0.126186,-0.08198 -0.296558,-0.148263 -0.511089,-0.198749 -0.214533,-0.05048 -0.454302,-0.09781 -0.719313,-0.141964 -0.157746,-0.02517 -0.299712,-0.05365 -0.425908,-0.08529 -0.04417,0.08198 -0.07573,0.170357 -0.09463,0.265013 -0.01894,0.100976 -0.02839,0.1956 -0.02839,0.283943 z m 5.574641,-0.321785 c -0.44168,0 -0.785561,-0.135636 -1.031641,-0.406978 -0.24608,-0.271313 -0.369121,-0.637283 -0.369121,-1.097898 v -2.602772 c 0,-0.107156 -0.04101,-0.182986 -0.123035,-0.227143 -0.08204,-0.04416 -0.195602,-0.06616 -0.340727,-0.06616 v -0.416457 c 0.08203,-0.06947 0.252391,-0.141963 0.511089,-0.217677 0.26501,-0.08198 0.561566,-0.122979 0.889674,-0.122979 0.24608,0 0.406979,0.02848 0.482696,0.08515 0.08204,0.05682 0.123036,0.195614 0.123036,0.416442 v 3.180107 c 0,0.1893 0.03154,0.334428 0.09466,0.435371 0.0631,0.100975 0.173513,0.151443 0.331259,0.151443 0.1325,0 0.258701,-0.04099 0.378585,-0.122979 0.126185,-0.08198 0.230305,-0.17667 0.312333,-0.283941 v -2.810987 c 0,-0.107157 -0.04733,-0.182986 -0.141977,-0.227143 -0.09466,-0.04401 -0.223998,-0.06616 -0.38805,-0.06616 v -0.416442 c 0.08833,-0.06948 0.261853,-0.141964 0.520553,-0.217693 0.258701,-0.08198 0.564722,-0.122977 0.918068,-0.122977 0.246081,0 0.41329,0.02848 0.501624,0.08529 0.08833,0.05682 0.1325,0.1956 0.1325,0.416442 v 3.482978 c 0,0.151443 0.03786,0.277629 0.113571,0.378585 0.08201,0.100976 0.195603,0.157743 0.340725,0.170357 v 0.265013 c -0.100944,0.119958 -0.261853,0.211365 -0.482694,0.274464 -0.214531,0.05682 -0.422752,0.08529 -0.624664,0.08529 -0.208221,0 -0.391205,-0.05365 -0.548947,-0.160907 -0.151432,-0.113485 -0.252391,-0.274479 -0.302869,-0.482692 -0.309176,0.429071 -0.741396,0.643584 -1.296653,0.643584 z m 5.167669,0 c -0.473231,0 -0.858127,-0.129307 -1.154683,-0.388049 -0.290249,-0.265014 -0.435373,-0.602577 -0.435373,-1.012705 0,-0.410142 0.1325,-0.741405 0.397514,-0.99379 0.271317,-0.252385 0.687761,-0.378586 1.24933,-0.378586 0.182986,0 0.375429,0.01898 0.57734,0.05682 0.201914,0.0315 0.365966,0.08198 0.49216,0.151428 v -1.258801 c 0,-0.265013 -0.06942,-0.447999 -0.208223,-0.548941 -0.132499,-0.107156 -0.296556,-0.160893 -0.492158,-0.160893 -0.208223,0 -0.378586,0.05048 -0.51109,0.151429 0.126186,0.04416 0.217687,0.113628 0.274473,0.208228 0.05679,0.08832 0.08518,0.18615 0.08518,0.293406 0,0.208228 -0.07573,0.375436 -0.227151,0.501621 -0.145133,0.119957 -0.32495,0.179836 -0.539482,0.179836 -0.239772,0 -0.432217,-0.06947 -0.577343,-0.208229 -0.145114,-0.145114 -0.217685,-0.324935 -0.217685,-0.539477 0,-0.214528 0.07256,-0.416442 0.217685,-0.605742 0.145116,-0.195599 0.369122,-0.356492 0.671989,-0.482692 0.309178,-0.126286 0.70669,-0.189285 1.192541,-0.189285 1.268258,0 1.902387,0.501634 1.902387,1.504875 v 2.508116 c 0,0.302871 0.145115,0.485857 0.435373,0.548956 v 0.302871 c -0.08204,0.119814 -0.220841,0.211378 -0.416443,0.274478 -0.195602,0.05682 -0.384895,0.08529 -0.567878,0.08529 -0.429062,0 -0.731929,-0.148293 -0.908602,-0.444849 -0.126185,0.113484 -0.293402,0.217692 -0.501624,0.312334 -0.208221,0.08832 -0.454303,0.132472 -0.73824,0.132472 z m 0.6152,-0.766634 c 0.08835,0 0.179828,-0.01295 0.274471,-0.03782 0.09466,-0.0315 0.173515,-0.06947 0.236617,-0.113484 v -0.918075 c -0.0631,-0.04401 -0.145115,-0.08198 -0.246081,-0.113484 -0.09463,-0.0315 -0.189284,-0.04733 -0.283938,-0.04733 -0.164061,0 -0.306022,0.05365 -0.425906,0.160893 -0.1199,0.100975 -0.17983,0.261849 -0.17983,0.482706 0,0.170357 0.05678,0.312335 0.170357,0.425906 0.113571,0.107157 0.26501,0.160907 0.454302,0.160907 z m 3.142236,0.700384 c -0.06941,-0.06947 -0.123035,-0.145128 -0.160902,-0.227157 -0.03786,-0.08198 -0.05679,-0.17667 -0.05679,-0.283941 0.182987,0 0.312331,-0.03782 0.388049,-0.113486 0.08201,-0.08198 0.123034,-0.217677 0.123034,-0.406963 v -2.735287 c 0,-0.164042 -0.04417,-0.280778 -0.1325,-0.350192 -0.08833,-0.07566 -0.252387,-0.113485 -0.49216,-0.113485 V 91.65188 c 0.15143,-0.08832 0.331261,-0.164042 0.539485,-0.227143 0.20822,-0.06947 0.413288,-0.122977 0.615198,-0.160906 0.201911,-0.04401 0.359657,-0.06616 0.473233,-0.06616 0.145115,0 0.249233,0.05048 0.31233,0.151442 0.06941,0.100976 0.104107,0.318651 0.104107,0.653063 0.06941,-0.13247 0.170356,-0.261863 0.302868,-0.388048 0.138814,-0.132471 0.293402,-0.239771 0.463765,-0.3218 0.170356,-0.08198 0.347036,-0.122977 0.530019,-0.122977 0.296556,0 0.507935,0.07566 0.634129,0.227156 0.126186,0.151428 0.189301,0.347028 0.189301,0.586814 0,0.271298 -0.06942,0.492141 -0.208222,0.662512 -0.138814,0.170356 -0.33126,0.25555 -0.57734,0.25555 -0.214533,0 -0.384895,-0.05983 -0.511089,-0.179851 -0.126185,-0.126286 -0.189283,-0.268149 -0.189283,-0.425905 0,-0.100976 0.0094,-0.179836 0.02838,-0.236607 -0.100944,0.02517 -0.198758,0.05997 -0.293403,0.104135 -0.09466,0.03783 -0.189301,0.100976 -0.28394,0.1893 v 2.839394 c 0,0.145114 0.02208,0.261836 0.06625,0.350178 0.04417,0.08832 0.129349,0.154592 0.255543,0.198764 0.1325,0.03782 0.328105,0.05682 0.586806,0.05682 0,0.107157 -0.01266,0.201899 -0.03785,0.283928 -0.02525,0.08198 -0.07256,0.157757 -0.141979,0.227156 z m 5.792326,0.122979 c -0.340726,0 -0.662523,-0.08529 -0.96539,-0.25555 -0.296557,-0.176671 -0.536329,-0.441685 -0.719311,-0.795027 -0.182987,-0.353342 -0.274474,-0.798177 -0.274474,-1.334505 0,-0.637283 0.116735,-1.167311 0.350192,-1.590053 0.239769,-0.422757 0.548947,-0.738241 0.927532,-0.946469 0.384895,-0.208214 0.795027,-0.312321 1.230399,-0.312321 0.08204,0 0.173514,0.0029 0.274474,0.0087 0.100944,0.0058 0.20191,0.01568 0.302867,0.02848 l -0.02839,-0.567885 v -0.473227 c 0,-0.145128 -0.041,-0.258699 -0.123049,-0.340728 -0.08204,-0.08198 -0.252392,-0.122977 -0.511089,-0.122977 v -0.38805 c 0.157746,-0.08832 0.343879,-0.167221 0.558411,-0.236621 0.214533,-0.06947 0.425908,-0.122978 0.634131,-0.160892 0.208221,-0.04416 0.375429,-0.06616 0.501623,-0.06616 0.145115,0 0.249234,0.03467 0.312331,0.104136 0.06941,0.06314 0.104107,0.173521 0.104107,0.331278 v 5.943758 c 0,0.309185 0.151429,0.49217 0.454301,0.548957 l 0.0094,0.265013 c -0.08835,0.119813 -0.223995,0.208228 -0.406978,0.265014 -0.182987,0.06314 -0.36912,0.09464 -0.558413,0.09464 -0.16406,0 -0.337571,-0.03783 -0.520554,-0.113485 -0.182986,-0.06947 -0.312332,-0.179835 -0.38805,-0.331263 -0.132499,0.176671 -0.296557,0.293392 -0.492159,0.350178 -0.189282,0.06314 -0.413289,0.09464 -0.671987,0.09464 z m 0.653057,-0.804492 c 0.195603,0 0.343882,-0.05682 0.444838,-0.170357 v -3.312621 c -0.1325,-0.182985 -0.309177,-0.274464 -0.530018,-0.274464 -0.170356,0 -0.324952,0.05997 -0.463767,0.179822 -0.138814,0.113484 -0.249235,0.30602 -0.331261,0.577334 -0.08202,0.265013 -0.123049,0.627835 -0.123049,1.088433 0,0.649913 0.09466,1.132605 0.28394,1.448089 0.195601,0.309172 0.435372,0.463764 0.719309,0.463764 z m 4.098171,-5.120353 c -0.271319,0 -0.489006,-0.07882 -0.65306,-0.236621 -0.157745,-0.164057 -0.236614,-0.381735 -0.236614,-0.653063 0,-0.264999 0.08201,-0.479542 0.246081,-0.643584 0.170356,-0.164043 0.391205,-0.246085 0.662522,-0.246085 0.277631,0 0.495316,0.08198 0.653057,0.246085 0.164061,0.164042 0.246081,0.378585 0.246081,0.643584 0,0.271328 -0.08518,0.489006 -0.255544,0.653063 -0.16406,0.157743 -0.384894,0.236621 -0.662523,0.236621 z m -1.060036,5.801809 c -0.06941,-0.06947 -0.123035,-0.145143 -0.160903,-0.227157 -0.03785,-0.08198 -0.05679,-0.176686 -0.05679,-0.283942 0.182987,0 0.31864,-0.03782 0.406976,-0.113485 0.08833,-0.08198 0.1325,-0.217678 0.1325,-0.406978 v -2.744809 c 0,-0.164056 -0.04101,-0.287106 -0.12305,-0.36912 -0.07573,-0.08198 -0.242923,-0.122978 -0.501624,-0.122978 v -0.416456 c 0.09466,-0.05682 0.239769,-0.119958 0.435371,-0.1893 0.195601,-0.07566 0.406978,-0.1388 0.634129,-0.189286 0.233461,-0.05048 0.441681,-0.07566 0.624665,-0.07566 0.145115,0 0.249236,0.03467 0.312333,0.104136 0.0631,0.06314 0.09464,0.173492 0.09464,0.331249 v 3.681742 c 0,0.1893 0.04733,0.3218 0.141979,0.397513 0.09463,0.07566 0.233461,0.113486 0.416442,0.113486 0,0.107155 -0.01894,0.201913 -0.05679,0.283941 -0.03785,0.08198 -0.09147,0.157744 -0.160903,0.227143 z m 3.02866,0 c -0.06941,-0.06947 -0.126184,-0.145143 -0.170356,-0.227157 -0.03785,-0.08198 -0.05678,-0.173521 -0.05678,-0.274478 0.189302,0 0.324952,-0.04099 0.406978,-0.122977 0.08202,-0.08198 0.123049,-0.214529 0.123049,-0.397499 v -2.76368 c 0,-0.164043 -0.04733,-0.283943 -0.141979,-0.359657 -0.08834,-0.07566 -0.25239,-0.113485 -0.49216,-0.113485 v -0.425906 c 0.145116,-0.08198 0.328108,-0.157743 0.548948,-0.227157 0.227151,-0.06947 0.444836,-0.122978 0.653057,-0.160878 0.214533,-0.04416 0.378586,-0.06616 0.49216,-0.06616 0.1325,0 0.23977,0.04099 0.321798,0.122979 0.08835,0.08198 0.138814,0.258699 0.151431,0.530012 0.157746,-0.195598 0.3565,-0.353342 0.596272,-0.473227 0.24608,-0.119814 0.530017,-0.179836 0.851814,-0.179836 0.441683,0 0.772944,0.113485 0.993783,0.340728 0.227151,0.220843 0.340729,0.599428 0.340729,1.135755 v 2.583845 c 0,0.30917 0.15143,0.492156 0.454301,0.548941 l 0.0094,0.274478 c -0.0631,0.06314 -0.164061,0.119814 -0.302868,0.170357 -0.138813,0.04416 -0.290247,0.07883 -0.4543,0.104136 -0.157745,0.02517 -0.306025,0.03782 -0.444839,0.03782 -0.271318,0 -0.47323,-0.05048 -0.605733,-0.151428 -0.126185,-0.100975 -0.189284,-0.261865 -0.189284,-0.482692 v -2.952966 c 0,-0.258713 -0.05678,-0.438534 -0.170357,-0.539491 -0.113571,-0.100975 -0.252389,-0.151442 -0.416443,-0.151442 -0.258699,0 -0.476386,0.104135 -0.653057,0.312335 v 2.886714 c 0,0.182986 0.03785,0.315485 0.113571,0.397514 0.08204,0.08198 0.217684,0.122978 0.406976,0.122978 0,0.189286 -0.07256,0.356492 -0.217685,0.501606 z m 7.55274,-1.552212 c -0.208224,0 -0.406981,-0.02215 -0.596273,-0.06616 v 0.02848 c 0,0.157757 0.05993,0.268178 0.179829,0.331278 0.126186,0.06314 0.343879,0.107156 0.653057,0.132471 0.801339,0.05682 1.403919,0.201914 1.807741,0.435371 0.410135,0.233457 0.615202,0.583648 0.615202,1.050562 0,0.246071 -0.06942,0.476377 -0.208223,0.690919 -0.138814,0.214529 -0.331262,0.400663 -0.577341,0.558407 -0.23977,0.157742 -0.514245,0.280792 -0.823422,0.36912 -0.309174,0.08832 -0.630974,0.132471 -0.96539,0.132471 -0.782408,0 -1.353439,-0.141964 -1.713097,-0.425907 -0.353345,-0.277627 -0.530015,-0.627819 -0.530015,-1.050576 0,-0.233456 0.07573,-0.444834 0.22715,-0.634134 0.157745,-0.1893 0.381738,-0.334399 0.671988,-0.435371 -0.138814,-0.100975 -0.227151,-0.214527 -0.26501,-0.340713 -0.03154,-0.126286 -0.04733,-0.265014 -0.04733,-0.416442 0,-0.100976 0.04101,-0.211378 0.123035,-0.331263 0.08204,-0.119958 0.208223,-0.211379 0.378585,-0.274479 -0.296556,-0.157742 -0.530019,-0.37542 -0.700382,-0.653063 -0.16406,-0.277627 -0.24608,-0.577333 -0.24608,-0.899133 0,-0.321799 0.07888,-0.612042 0.236616,-0.870741 0.157745,-0.265014 0.391203,-0.476392 0.700381,-0.634135 0.309177,-0.157742 0.69407,-0.236606 1.154683,-0.236606 h 0.0094 c 0.05679,0 0.141979,0.0029 0.255546,0.0087 0.119885,0.0058 0.230304,0.01898 0.33126,0.03782 0.435373,0 0.766632,-0.0029 0.993783,-0.0087 0.233461,-0.01295 0.410135,-0.02518 0.530019,-0.03782 0.119901,-0.01295 0.236617,-0.02848 0.350191,-0.04733 0.06942,0 0.119885,0.04733 0.151429,0.141964 0.03154,0.08832 0.04733,0.173506 0.04733,0.255549 0,0.119958 -0.02839,0.220842 -0.08518,0.302871 -0.05679,0.08198 -0.15143,0.122977 -0.283938,0.122977 -0.05679,0 -0.160903,-0.0315 -0.312332,-0.09464 -0.151431,-0.06314 -0.29656,-0.119813 -0.435372,-0.170357 0.214531,0.170357 0.375429,0.365956 0.482694,0.586799 0.113571,0.220842 0.170358,0.429056 0.170358,0.62467 0,0.593099 -0.201912,1.044262 -0.605737,1.353433 -0.40382,0.309185 -0.962234,0.463763 -1.675235,0.463763 z m 0.160903,-0.624655 c 0.20822,0 0.353345,-0.110464 0.435371,-0.331264 0.08833,-0.220828 0.132499,-0.545791 0.132499,-0.974847 0,-0.353342 -0.05048,-0.605742 -0.15143,-0.757185 -0.09463,-0.151428 -0.23346,-0.227141 -0.416443,-0.227141 -0.208221,0 -0.353346,0.110464 -0.435372,0.331263 -0.08201,0.214527 -0.12305,0.511084 -0.12305,0.889669 0,0.347043 0.04417,0.612056 0.132499,0.795028 0.08835,0.182984 0.230305,0.274477 0.425907,0.274477 z m -0.889674,2.564902 c 0,0.265013 0.08204,0.489006 0.246081,0.671991 0.164061,0.182986 0.457456,0.274478 0.880209,0.274478 0.315487,0 0.536328,-0.07566 0.662522,-0.227157 0.126184,-0.151428 0.189283,-0.318649 0.189283,-0.501635 0,-0.145114 -0.06625,-0.258684 -0.198758,-0.340713 -0.126186,-0.08198 -0.296557,-0.148278 -0.511088,-0.19875 -0.214532,-0.05048 -0.454302,-0.09781 -0.719312,-0.141963 -0.157745,-0.02517 -0.299712,-0.05365 -0.425907,-0.08515 -0.04417,0.08198 -0.07573,0.170357 -0.09466,0.265014 -0.01894,0.100975 -0.02838,0.195599 -0.02838,0.283928 z"
         id="text1"
         aria-label="Safeguarding Synthetic Speech @ Interspeech 2026"
         sodipodi:nodetypes="ccccccsccsscccsccscccccscccscsccccccsccscccccscsccscsccscscsccssscccscccccccccscsccccccscccscsscscsscscscccsccsccsccccscccccccsccscscsccscccscccccscscsscscccscccsscsscscccssccscsssccccccssscccssccscscscsssssssscscccsscsssscccscssssccsscccssssccccsccccscscsccscsccscscsccssscccsccsscccccscsccccscssscccccscccsssssscscccssccsccccssccssccssccscscsscccscccccsccsccscsscscscscsccccsscccccscssscscccccssscccccscccscssccccscsssscscccccsscccsscsscscccssccscssscccsccssssccssccssscscssssscsscscccsscc" />
      <path
         d="m 36.380364,118.89531 c -0.694075,0 -1.321885,-0.1388 -1.883455,-0.41644 -0.555257,-0.27765 -0.996929,-0.68776 -1.325042,-1.2304 -0.321799,-0.53635 -0.482692,-1.19256 -0.482692,-1.96864 0,-0.66254 0.119885,-1.27773 0.359653,-1.84562 0.239769,-0.56786 0.571023,-1.06001 0.993777,-1.47647 0.429061,-0.42275 0.921222,-0.75085 1.47648,-0.98429 0.561571,-0.23978 1.164148,-0.35967 1.807748,-0.35967 0.681455,0 1.284035,0.1388 1.807737,0.41644 0.523702,0.27762 0.933846,0.67515 1.2304,1.19253 0.296557,0.51109 0.444841,1.1263 0.444841,1.84559 0,0.51742 -0.08522,0.9875 -0.255546,1.41026 -0.164041,0.41642 -0.419597,0.75084 -0.76664,1.00322 -0.340721,0.2524 -0.779252,0.37858 -1.315578,0.37858 -0.27131,0 -0.511078,-0.0379 -0.719306,-0.11348 -0.201916,-0.0694 -0.394364,-0.18294 -0.577347,-0.34071 -0.145114,0.10715 -0.324943,0.20192 -0.539481,0.28394 -0.214537,0.0818 -0.451152,0.12298 -0.709841,0.12298 -0.46693,0 -0.810806,-0.15138 -1.031655,-0.4543 -0.220836,-0.29654 -0.331254,-0.68461 -0.331254,-1.16414 0,-0.43538 0.08198,-0.82974 0.246081,-1.1831 0.170357,-0.35334 0.403818,-0.63096 0.700375,-0.83287 0.302867,-0.20823 0.656222,-0.31233 1.060041,-0.31233 0.391197,0 0.738242,0.0915 1.041108,0.27446 0.100996,-0.0503 0.211368,-0.0882 0.331267,-0.11348 0.119899,-0.0315 0.223991,-0.0474 0.312321,-0.0474 h 0.634134 l -0.369121,2.2999 c -0.01295,0.0568 -0.02212,0.11349 -0.02846,0.17033 v 0.15137 c 0,0.31548 0.122992,0.47322 0.369108,0.47322 0.201915,0 0.381756,-0.0915 0.539495,-0.27447 0.164041,-0.18294 0.2934,-0.42591 0.38804,-0.72876 0.09467,-0.30289 0.141978,-0.63729 0.141978,-1.00326 0,-0.61835 -0.122991,-1.12314 -0.36912,-1.51434 -0.246079,-0.3912 -0.57419,-0.67829 -0.984321,-0.86128 -0.403819,-0.18925 -0.842348,-0.28395 -1.315574,-0.28395 -0.498472,0 -0.968545,0.0915 -1.41023,0.27449 -0.435373,0.18294 -0.823429,0.44485 -1.164148,0.78556 -0.334423,0.34072 -0.599423,0.7477 -0.79503,1.22093 -0.1893,0.46693 -0.283933,0.98433 -0.283933,1.5522 0,0.93384 0.268158,1.64371 0.804483,2.12954 0.542636,0.49218 1.299812,0.73824 2.271509,0.73824 0.429062,0 0.810806,-0.041 1.145214,-0.12298 0.334423,-0.0818 0.605737,-0.1799 0.813963,-0.29341 l 0.09467,0.15137 c 0.03156,0.044 0.05044,0.0851 0.05679,0.12298 0.0065,0.0442 0.0091,0.0821 0.0091,0.11348 0,0.0884 -0.02212,0.14831 -0.06622,0.17989 -0.239785,0.15769 -0.56474,0.30288 -0.974868,0.43538 -0.41013,0.13247 -0.870736,0.19873 -1.381829,0.19873 z m 0.265015,-2.84886 c 0.08833,0 0.164041,-0.0129 0.227146,-0.0379 0.06311,-0.0253 0.116778,-0.0569 0.160905,-0.0948 l 0.312331,-2.16741 c -0.126228,-0.0631 -0.249236,-0.0948 -0.369119,-0.0948 -0.227148,0 -0.429065,0.13247 -0.605734,0.39751 -0.170357,0.265 -0.255549,0.63412 -0.255549,1.10735 0,0.30919 0.04423,0.53634 0.1325,0.68146 0.08835,0.1388 0.22085,0.20822 0.39752,0.20822 z m 7.211998,-0.11349 c -0.1388,-0.1577 -0.208213,-0.35967 -0.208213,-0.60574 0.208226,0 0.353342,-0.0347 0.435373,-0.10413 0.08833,-0.0694 0.132501,-0.19244 0.132501,-0.36913 v -4.44832 c 0,-0.17668 -0.04409,-0.29971 -0.132501,-0.36912 -0.082,-0.0756 -0.227122,-0.11364 -0.435373,-0.11364 0,-0.23976 0.06945,-0.43851 0.208213,-0.59626 h 2.299909 c 0.06311,0.0757 0.113543,0.1672 0.15143,0.27448 0.03788,0.10716 0.05679,0.21453 0.05679,0.32178 -0.208214,0 -0.356485,0.0379 -0.444827,0.11364 -0.08198,0.0694 -0.122992,0.19244 -0.122992,0.36912 v 4.44836 c 0,0.17664 0.04099,0.29972 0.122992,0.36913 0.08833,0.0694 0.236613,0.10413 0.444827,0.10413 0,0.11349 -0.01894,0.224 -0.05679,0.33126 -0.03789,0.10716 -0.08833,0.19876 -0.15143,0.27449 z m 3.189563,0 c -0.06945,-0.0694 -0.126229,-0.14505 -0.170357,-0.22715 -0.03789,-0.0821 -0.05679,-0.17358 -0.05679,-0.27448 0.189303,0 0.324944,-0.041 0.406975,-0.12298 0.08198,-0.0821 0.122993,-0.21456 0.122993,-0.39753 v -2.76366 c 0,-0.16399 -0.04733,-0.28395 -0.14195,-0.35965 -0.08835,-0.0758 -0.25239,-0.11349 -0.492162,-0.11349 v -0.42591 c 0.145115,-0.0818 0.328099,-0.15768 0.548947,-0.22714 0.227148,-0.0694 0.444828,-0.12298 0.653055,-0.1609 0.214538,-0.0442 0.37859,-0.0661 0.492161,-0.0661 0.132501,0 0.239769,0.041 0.321801,0.12298 0.08833,0.082 0.138815,0.2587 0.15143,0.53001 0.157745,-0.19561 0.3565,-0.35333 0.596268,-0.47322 0.24608,-0.11982 0.530028,-0.17984 0.851828,-0.17984 0.441686,0 0.77294,0.11349 0.993774,0.34075 0.227162,0.22082 0.340734,0.5994 0.340734,1.13575 v 2.58381 c 0,0.3092 0.151431,0.49217 0.454295,0.54896 l 0.0091,0.27449 c -0.06311,0.0631 -0.16406,0.11981 -0.302865,0.17032 -0.138814,0.0442 -0.29026,0.0788 -0.454308,0.10413 -0.157746,0.0253 -0.306024,0.0379 -0.444828,0.0379 -0.271324,0 -0.473241,-0.0504 -0.605734,-0.15136 -0.126228,-0.10111 -0.189302,-0.26185 -0.189302,-0.48271 v -2.95293 c 0,-0.25872 -0.05678,-0.43855 -0.170355,-0.5395 -0.113542,-0.10111 -0.252406,-0.15137 -0.416454,-0.15137 -0.25869,0 -0.476385,0.10414 -0.653054,0.31235 v 2.8867 c 0,0.18296 0.03788,0.3155 0.113542,0.39751 0.08198,0.082 0.217655,0.12298 0.406988,0.12298 0,0.18927 -0.07255,0.35651 -0.217694,0.50164 z m 7.325586,0.0661 c -0.265001,0 -0.507925,-0.0474 -0.728775,-0.14196 -0.220837,-0.10111 -0.400663,-0.27134 -0.53948,-0.51109 -0.132499,-0.23977 -0.198761,-0.56786 -0.198761,-0.98432 v -2.60278 h -0.596268 v -0.57734 c 0.170358,-0.0253 0.331268,-0.13246 0.482694,-0.32178 0.15145,-0.18932 0.280792,-0.42275 0.388053,-0.70039 0.113542,-0.27762 0.186146,-0.55526 0.217681,-0.83289 0.113543,-0.019 0.217692,-0.0285 0.312335,-0.0285 0.25239,0 0.425907,0.0725 0.520559,0.21768 0.100996,0.14514 0.15143,0.2808 0.15143,0.407 v 0.99377 h 1.097898 c 0,0.15137 -0.0091,0.30289 -0.02832,0.45431 -0.01295,0.14505 -0.05355,0.27446 -0.122993,0.38805 h -0.927533 v 2.66902 c 0,0.20191 0.04099,0.33756 0.122991,0.40697 0.08198,0.0631 0.186107,0.0948 0.312334,0.0948 0.126229,0 0.252392,-0.0315 0.378587,-0.0948 0.132485,-0.0694 0.2366,-0.14831 0.312322,-0.23661 0.06945,0.0568 0.116779,0.14197 0.141979,0.25553 0.02523,0.10716 0.03789,0.18927 0.03789,0.24609 0,0.1388 -0.04733,0.27764 -0.141979,0.41645 -0.09467,0.1388 -0.242923,0.25555 -0.44484,0.35019 -0.195603,0.0882 -0.444839,0.13246 -0.747706,0.13246 z m 3.861537,0.0191 c -0.706685,0 -1.271411,-0.22402 -1.694162,-0.67198 -0.416441,-0.448 -0.624668,-1.07267 -0.624668,-1.87402 0,-0.54895 0.104108,-1.02217 0.312336,-1.41969 0.208226,-0.40381 0.489005,-0.71299 0.842346,-0.92752 0.359668,-0.21454 0.766641,-0.3218 1.220935,-0.3218 0.567881,0 1.022188,0.1672 1.362909,0.50164 0.347044,0.32807 0.520561,0.79187 0.520561,1.39129 0,0.23976 -0.04099,0.45115 -0.122993,0.63413 -0.07565,0.17664 -0.2366,0.26499 -0.482693,0.26499 h -2.044362 c 0.01894,0.49848 0.132542,0.85183 0.340721,1.06006 0.214538,0.2082 0.492161,0.31233 0.832894,0.31233 0.214538,0 0.413284,-0.0317 0.596268,-0.0948 0.182986,-0.0694 0.353356,-0.16402 0.511094,-0.28397 0.05679,0.0505 0.100996,0.12931 0.1325,0.23663 0.03788,0.10111 0.05679,0.18621 0.05679,0.25553 0,0.10111 -0.07255,0.22719 -0.217694,0.37859 -0.1388,0.14505 -0.340721,0.27447 -0.605735,0.38806 -0.258703,0.11349 -0.571035,0.17032 -0.937,0.17032 z m -0.709841,-3.14226 h 0.955923 c 0.107343,0 0.173533,-0.041 0.19876,-0.12298 0.03156,-0.0821 0.04733,-0.18294 0.04733,-0.30285 0,-0.40383 -0.05044,-0.66884 -0.151431,-0.79505 -0.09467,-0.13246 -0.208227,-0.19876 -0.340734,-0.19876 -0.107199,0 -0.214523,0.041 -0.321786,0.12298 -0.107343,0.082 -0.195607,0.22716 -0.265014,0.43537 -0.06944,0.20191 -0.110436,0.489 -0.122992,0.86129 z m 3.369404,3.05706 c -0.06944,-0.0694 -0.122991,-0.14506 -0.160902,-0.22712 -0.03788,-0.0821 -0.05679,-0.17665 -0.05679,-0.28397 0.182987,0 0.312334,-0.0379 0.388056,-0.11348 0.08198,-0.0821 0.122992,-0.21768 0.122992,-0.40697 v -2.73528 c 0,-0.16401 -0.04423,-0.2808 -0.132499,-0.35021 -0.08833,-0.0756 -0.252392,-0.11348 -0.492161,-0.11348 v -0.42591 c 0.151429,-0.0882 0.331253,-0.16401 0.53948,-0.22714 0.208227,-0.0694 0.413286,-0.12297 0.615201,-0.16093 0.201915,-0.0442 0.359656,-0.0661 0.47324,-0.0661 0.145115,0 0.249223,0.0505 0.312321,0.15143 0.06945,0.10111 0.104107,0.31865 0.104107,0.65308 0.06945,-0.13248 0.170357,-0.26186 0.302869,-0.38807 0.138799,-0.13247 0.293398,-0.23977 0.46376,-0.32179 0.170356,-0.082 0.347032,-0.12299 0.530014,-0.12299 0.296557,0 0.507939,0.0756 0.634133,0.22714 0.126228,0.15137 0.189303,0.34705 0.189303,0.58681 0,0.27132 -0.06945,0.49216 -0.208227,0.66252 -0.1388,0.17032 -0.331254,0.25555 -0.577335,0.25555 -0.214538,0 -0.384898,-0.0598 -0.511094,-0.17987 -0.126229,-0.1263 -0.189284,-0.26817 -0.189284,-0.42593 0,-0.10111 0.0091,-0.17987 0.02846,-0.23661 -0.100996,0.0253 -0.198759,0.0602 -0.293398,0.10415 -0.09467,0.0379 -0.189303,0.10111 -0.283949,0.18927 v 2.83936 c 0,0.14505 0.02212,0.26184 0.06621,0.35019 0.04412,0.0882 0.129321,0.15463 0.255548,0.19875 0.132499,0.0379 0.328113,0.0568 0.586801,0.0568 0,0.10716 -0.01295,0.20191 -0.03789,0.28392 -0.02522,0.082 -0.07255,0.1577 -0.141978,0.22716 z m 5.972157,0.0948 c -0.22716,0 -0.457463,-0.0253 -0.690922,-0.0755 -0.227159,-0.0505 -0.438529,-0.12313 -0.634133,-0.2177 -0.189303,-0.0946 -0.343877,-0.21138 -0.463762,-0.35019 -0.119885,-0.14507 -0.179829,-0.30919 -0.179829,-0.49218 0,-0.22084 0.06311,-0.3975 0.189302,-0.53001 0.126229,-0.1388 0.287091,-0.20822 0.482695,-0.20822 0.17667,0 0.324941,0.0568 0.44484,0.17031 0.126229,0.11349 0.189282,0.26185 0.189282,0.44484 0,0.082 -0.01295,0.15463 -0.03788,0.21768 -0.02523,0.0568 -0.06311,0.11996 -0.113543,0.18926 0.05678,0.0568 0.157784,0.0978 0.302866,0.12299 0.145115,0.0253 0.28709,0.038 0.425908,0.038 0.220848,0 0.391208,-0.041 0.511094,-0.12298 0.119885,-0.0821 0.179828,-0.18296 0.179828,-0.30287 0,-0.18925 -0.100996,-0.3502 -0.302868,-0.48271 -0.201916,-0.1388 -0.432218,-0.27764 -0.69092,-0.41645 -0.233458,-0.12629 -0.466916,-0.25867 -0.700387,-0.39748 -0.227147,-0.14507 -0.419596,-0.32497 -0.577335,-0.53949 -0.151429,-0.21455 -0.227147,-0.48587 -0.227147,-0.81398 0,-0.41644 0.173515,-0.7603 0.520548,-1.03164 0.347044,-0.27132 0.839204,-0.40697 1.476481,-0.40697 0.441685,0 0.795028,0.0568 1.060043,0.17039 0.264999,0.10715 0.45745,0.24607 0.577334,0.41642 0.11987,0.164 0.179829,0.33759 0.179829,0.52056 0,0.19559 -0.06311,0.35335 -0.189282,0.47322 -0.1199,0.11349 -0.268158,0.17033 -0.444828,0.17033 -0.157745,0 -0.296569,-0.0474 -0.416455,-0.14197 -0.119885,-0.10101 -0.179829,-0.2303 -0.179829,-0.38804 0,-0.0756 0.01295,-0.15769 0.03789,-0.24607 0.02522,-0.0884 0.06001,-0.16094 0.104106,-0.2177 -0.06945,-0.0568 -0.151429,-0.0948 -0.246079,-0.11349 -0.08835,-0.0253 -0.195606,-0.0379 -0.3218,-0.0379 -0.208226,0 -0.369121,0.0504 -0.482695,0.15137 -0.1072,0.0948 -0.160884,0.21136 -0.160884,0.35018 0,0.21456 0.100996,0.39123 0.302868,0.53002 0.208227,0.13881 0.43853,0.27449 0.69092,0.40699 0.233459,0.11981 0.460606,0.24924 0.681443,0.38806 0.227159,0.13879 0.416452,0.31231 0.56788,0.52054 0.151431,0.20822 0.227148,0.47639 0.227148,0.80449 0,0.35335 -0.100996,0.63728 -0.302868,0.85183 -0.201916,0.20821 -0.463761,0.35965 -0.785563,0.45428 -0.315488,0.0948 -0.649896,0.14196 -1.00324,0.14196 z m 2.801511,1.70362 c -0.06945,-0.0694 -0.12623,-0.14506 -0.170377,-0.22714 -0.03788,-0.0821 -0.05678,-0.17356 -0.05678,-0.27448 0.189303,0 0.309191,-0.041 0.359668,-0.12298 0.05679,-0.0818 0.08522,-0.21451 0.08522,-0.39751 v -4.53354 c 0,-0.16401 -0.04733,-0.28393 -0.141978,-0.35965 -0.08834,-0.0756 -0.252379,-0.11349 -0.492147,-0.11349 v -0.42591 c 0.138799,-0.0821 0.302852,-0.15768 0.492147,-0.22716 0.195604,-0.0694 0.384898,-0.12297 0.567882,-0.16095 0.182987,-0.0442 0.328111,-0.0661 0.435373,-0.0661 0.126229,0 0.230303,0.0252 0.312335,0.0756 0.08833,0.0505 0.151448,0.15139 0.189282,0.30289 0.145116,-0.1388 0.315478,-0.23661 0.511082,-0.2934 0.201915,-0.0569 0.413285,-0.0853 0.634134,-0.0853 0.334421,0 0.646756,0.0883 0.937002,0.26501 0.290243,0.17032 0.523701,0.42908 0.700374,0.7761 0.182986,0.34703 0.274479,0.7887 0.274479,1.32504 0,0.59945 -0.116778,1.11366 -0.350198,1.54274 -0.227148,0.42275 -0.536327,0.74768 -0.927523,0.97484 -0.384899,0.22087 -0.81396,0.33127 -1.28719,0.33127 -0.05044,0 -0.107199,-0.001 -0.170356,-0.0103 -0.06311,0 -0.129364,-0.001 -0.19876,-0.0103 v 0.69091 c 0,0.18296 0.06623,0.3155 0.19876,0.39751 0.132486,0.0821 0.268158,0.12298 0.406975,0.12298 0,0.18927 -0.07255,0.35651 -0.217694,0.50164 z m 2.063283,-2.38507 c 0.258702,0 0.479538,-0.15137 0.662522,-0.45431 0.182987,-0.30287 0.274479,-0.79502 0.274479,-1.47647 0,-0.43538 -0.04733,-0.77925 -0.141978,-1.03165 -0.08835,-0.2587 -0.211383,-0.44168 -0.36912,-0.54893 -0.157746,-0.11349 -0.331268,-0.17032 -0.52056,-0.17032 -0.100996,0 -0.189284,0.0191 -0.265002,0.0569 v 3.53031 c 0.1072,0.0631 0.227147,0.0948 0.359655,0.0948 z m 5.432662,0.67198 c -0.706699,0 -1.271411,-0.22397 -1.694162,-0.67198 -0.416441,-0.448 -0.624668,-1.07266 -0.624668,-1.87399 0,-0.54895 0.104107,-1.02218 0.312334,-1.4197 0.208225,-0.40383 0.489005,-0.713 0.842347,-0.92754 0.359654,-0.21453 0.766628,-0.32178 1.220935,-0.32178 0.567882,0 1.022175,0.16721 1.362907,0.50162 0.347032,0.32811 0.520549,0.79187 0.520549,1.3913 0,0.23977 -0.04099,0.45113 -0.122992,0.63412 -0.07565,0.17663 -0.236602,0.26503 -0.482695,0.26503 h -2.044348 c 0.01894,0.49845 0.132542,0.8518 0.340721,1.06001 0.214538,0.20822 0.49216,0.31235 0.83288,0.31235 0.214538,0 0.413298,-0.0317 0.596281,-0.0948 0.182986,-0.0694 0.353343,-0.16399 0.511081,-0.28392 0.05678,0.0503 0.100996,0.12931 0.1325,0.23661 0.03788,0.10111 0.05678,0.18618 0.05678,0.25554 0,0.10111 -0.07255,0.22714 -0.217682,0.37859 -0.138814,0.14505 -0.340732,0.27446 -0.605733,0.38803 -0.258702,0.11348 -0.571036,0.17033 -0.937003,0.17033 z m -0.709841,-3.14225 h 0.955921 c 0.1072,0 0.173514,-0.041 0.19876,-0.12298 0.03156,-0.0818 0.04733,-0.18294 0.04733,-0.30285 0,-0.40383 -0.05044,-0.66886 -0.15145,-0.79503 -0.09467,-0.13248 -0.208213,-0.19876 -0.340721,-0.19876 -0.107199,0 -0.214523,0.041 -0.321799,0.12312 -0.107199,0.0818 -0.195592,0.22716 -0.265002,0.43538 -0.06945,0.20189 -0.110435,0.48899 -0.122992,0.86126 z m 5.470527,3.14225 c -0.706699,0 -1.271412,-0.22397 -1.694162,-0.67198 -0.416442,-0.448 -0.624667,-1.07266 -0.624667,-1.87399 0,-0.54895 0.104107,-1.02218 0.312333,-1.4197 0.208227,-0.40383 0.489006,-0.713 0.842347,-0.92754 0.359654,-0.21453 0.76663,-0.32178 1.220936,-0.32178 0.56788,0 1.022175,0.16721 1.362908,0.50162 0.347032,0.32811 0.520547,0.79187 0.520547,1.3913 0,0.23977 -0.04099,0.45113 -0.122993,0.63412 -0.07565,0.17663 -0.236601,0.26503 -0.482694,0.26503 h -2.044364 c 0.01894,0.49845 0.132544,0.8518 0.340735,1.06001 0.214538,0.20822 0.492159,0.31235 0.83288,0.31235 0.214538,0 0.413287,-0.0317 0.596267,-0.0948 0.182987,-0.0694 0.353357,-0.16399 0.511095,-0.28392 0.05679,0.0503 0.100996,0.12931 0.1325,0.23661 0.03789,0.10111 0.05679,0.18618 0.05679,0.25554 0,0.10111 -0.07255,0.22714 -0.217679,0.37859 -0.138815,0.14505 -0.340735,0.27446 -0.605747,0.38803 -0.258691,0.11348 -0.571025,0.17033 -0.936988,0.17033 z m -0.709854,-3.14225 h 0.955935 c 0.107199,0 0.173513,-0.041 0.198747,-0.12298 0.03156,-0.0818 0.04733,-0.18294 0.04733,-0.30285 0,-0.40383 -0.05044,-0.66886 -0.15145,-0.79503 -0.09467,-0.13248 -0.208212,-0.19876 -0.34072,-0.19876 -0.1072,0 -0.214538,0.041 -0.321801,0.12312 -0.107199,0.0818 -0.195603,0.22716 -0.265012,0.43538 -0.06945,0.20189 -0.110436,0.48899 -0.122993,0.86126 z m 5.489461,3.19903 c -0.460605,0 -0.867579,-0.10413 -1.220933,-0.31231 -0.347032,-0.20822 -0.621501,-0.50479 -0.823418,-0.88968 -0.195603,-0.39122 -0.293399,-0.85812 -0.293399,-1.40076 0,-0.56158 0.1072,-1.04111 0.321789,-1.43864 0.214536,-0.4038 0.507938,-0.70982 0.880212,-0.91804 0.372276,-0.21453 0.791874,-0.32181 1.258789,-0.32181 0.485851,0 0.85497,0.11679 1.107361,0.3502 0.252393,0.22713 0.378586,0.50793 0.378586,0.84235 0,0.30285 -0.07565,0.53631 -0.227146,0.70039 -0.15143,0.164 -0.347044,0.24605 -0.586813,0.24605 -0.195604,0 -0.359654,-0.0725 -0.492161,-0.21767 -0.1325,-0.14505 -0.198747,-0.32179 -0.198747,-0.53001 0,-0.15139 0.02522,-0.27446 0.07564,-0.36913 0.05678,-0.0948 0.126229,-0.17358 0.208227,-0.23661 -0.06311,-0.038 -0.116779,-0.0601 -0.160884,-0.0661 -0.03789,-0.013 -0.07565,-0.0191 -0.113542,-0.0191 -0.119886,0 -0.242925,0.0473 -0.369122,0.14195 -0.126229,0.0948 -0.233445,0.26186 -0.321787,0.50163 -0.08198,0.23975 -0.122992,0.5742 -0.122992,1.00324 0,0.69408 0.100997,1.18309 0.302868,1.46701 0.201915,0.27765 0.485849,0.41646 0.851813,0.41646 0.170356,0 0.34072,-0.0253 0.511081,-0.0755 0.176671,-0.0504 0.324955,-0.12298 0.444841,-0.2177 0.05044,0.0632 0.09143,0.14197 0.122992,0.23664 0.03789,0.0882 0.05679,0.16726 0.05679,0.23661 0,0.13247 -0.07255,0.26815 -0.217679,0.40696 -0.138814,0.13261 -0.328113,0.24293 -0.567882,0.33128 -0.239768,0.0882 -0.507937,0.13247 -0.804494,0.13247 z m 6.180381,-0.0851 c -0.309178,0 -0.545791,-0.0474 -0.709839,-0.14196 -0.164043,-0.0948 -0.246082,-0.24609 -0.246082,-0.45432 v -3.04759 c 0,-0.20191 -0.05678,-0.3565 -0.170358,-0.46376 -0.113542,-0.1135 -0.261856,-0.17032 -0.44484,-0.17032 -0.1199,0 -0.249234,0.041 -0.388052,0.12298 -0.132499,0.0755 -0.233458,0.17989 -0.302868,0.31234 v 2.76366 c 0,0.18296 0.03788,0.31547 0.113542,0.39752 0.082,0.0756 0.217656,0.11348 0.406988,0.11348 0,0.19561 -0.07255,0.36597 -0.217693,0.51111 h -2.091682 c -0.145115,-0.14506 -0.217681,-0.3155 -0.217681,-0.51111 0.189284,0 0.321787,-0.0379 0.397508,-0.11348 0.08198,-0.0821 0.122992,-0.21453 0.122992,-0.39752 v -5.12982 c 0,-0.14513 -0.04099,-0.2587 -0.122992,-0.34072 -0.082,-0.082 -0.252353,-0.12298 -0.511081,-0.12298 v -0.38805 c 0.157745,-0.082 0.340721,-0.15774 0.548946,-0.22715 0.214538,-0.0695 0.425908,-0.12298 0.634121,-0.16088 0.214538,-0.0442 0.39121,-0.0662 0.530029,-0.0662 0.145115,0 0.249235,0.0347 0.312334,0.10413 0.06311,0.0631 0.09467,0.17352 0.09467,0.33125 v 1.86455 l -0.01894,0.75716 c 0.164041,-0.20821 0.375433,-0.38489 0.634134,-0.53002 0.258703,-0.14511 0.552103,-0.21767 0.880215,-0.21767 0.89598,0 1.343977,0.4669 1.343977,1.40075 v 2.65008 c 0,0.3218 0.151429,0.51111 0.454292,0.56788 l 0.0091,0.27449 c -0.227148,0.20821 -0.57418,0.31231 -1.041109,0.31231 z m 3.643847,0.0473 -0.302868,-0.23662 c 0.06945,-0.37226 0.189302,-0.70667 0.359654,-1.00325 0.170358,-0.29654 0.36912,-0.57102 0.596268,-0.8234 0.22716,-0.25241 0.457464,-0.49216 0.690922,-0.71932 0.239768,-0.23346 0.460603,-0.46376 0.662521,-0.69092 0.201916,-0.23346 0.365963,-0.47952 0.49216,-0.73824 0.126228,-0.26501 0.189282,-0.55211 0.189282,-0.86128 0,-0.37859 -0.09157,-0.65306 -0.27448,-0.82341 -0.176672,-0.17037 -0.397507,-0.25555 -0.66252,-0.25555 -0.365965,0 -0.649899,0.1388 -0.851815,0.41643 0.164044,0.0442 0.296556,0.1388 0.39752,0.28394 0.100996,0.14514 0.151429,0.29341 0.151429,0.44484 0,0.23346 -0.09143,0.42276 -0.274466,0.56788 -0.182987,0.1388 -0.388054,0.20822 -0.6152,0.20822 -0.233459,0 -0.441686,-0.0821 -0.624669,-0.24608 -0.182987,-0.17032 -0.274466,-0.41015 -0.274466,-0.71931 0,-0.29025 0.09777,-0.55526 0.2934,-0.79503 0.201916,-0.24607 0.479538,-0.44484 0.832881,-0.59627 0.359653,-0.15142 0.77925,-0.22714 1.258802,-0.22714 0.435374,0 0.829725,0.0695 1.183055,0.20822 0.35334,0.13879 0.63412,0.35019 0.84235,0.63413 0.21454,0.27762 0.3218,0.63097 0.3218,1.06004 0,0.34072 -0.0662,0.64358 -0.19876,0.90859 -0.13249,0.25869 -0.30917,0.49216 -0.53001,0.70037 -0.214543,0.20192 -0.454313,0.39123 -0.719301,0.56789 -0.265013,0.17032 -0.533183,0.34072 -0.804495,0.51109 -0.265013,0.16401 -0.514248,0.33442 -0.747706,0.5111 -0.227148,0.17663 -0.416442,0.37541 -0.567869,0.59625 0.182987,-0.0821 0.406976,-0.15136 0.671989,-0.20821 0.27131,-0.0631 0.520545,-0.0948 0.747692,-0.0948 h 0.501628 c 0.302868,0 0.57418,-0.0694 0.813952,-0.20822 0.23977,-0.14505 0.39435,-0.34387 0.46376,-0.59626 h 0.26501 c 0.101,0.0882 0.18299,0.21453 0.24608,0.37859 0.0631,0.16399 0.0947,0.33754 0.0947,0.52055 0,0.1956 -0.0504,0.39435 -0.15143,0.59627 -0.0947,0.1956 -0.25871,0.35965 -0.49217,0.49214 -0.23347,0.12628 -0.561566,0.18927 -0.984306,0.18927 -0.220849,0 -0.422752,-0.013 -0.605734,-0.038 -0.182987,-0.0253 -0.36912,-0.0504 -0.558414,-0.0755 -0.189303,-0.0253 -0.410128,-0.0379 -0.662522,-0.0379 -0.201914,0 -0.403817,0.0153 -0.605732,0.0474 -0.201916,0.0315 -0.388056,0.0818 -0.558415,0.15138 l 0.0091,-0.0103 z m 8.00705,-0.0103 c -0.54895,0 -1.02534,-0.11045 -1.42916,-0.33125 -0.40382,-0.22087 -0.71615,-0.57419 -0.93699,-1.06004 -0.22085,-0.49217 -0.33126,-1.13891 -0.33126,-1.94024 0,-0.85182 0.11354,-1.53012 0.34073,-2.0349 0.22715,-0.5111 0.54263,-0.87705 0.94645,-1.0979 0.41014,-0.22084 0.88653,-0.33126 1.42917,-0.33126 0.54895,0 1.02533,0.11348 1.42915,0.34072 0.41012,0.22085 0.72562,0.5868 0.94646,1.0979 0.22084,0.50478 0.33126,1.18307 0.33126,2.03489 0,0.80765 -0.11355,1.45756 -0.34072,1.94973 -0.22716,0.48584 -0.5458,0.83603 -0.95592,1.05055 -0.40383,0.21454 -0.88022,0.3218 -1.42917,0.3218 z m 0,-0.66252 c 0.13881,0 0.27133,-0.0347 0.39751,-0.10413 0.12623,-0.0694 0.23662,-0.1956 0.33127,-0.37859 0.0947,-0.18927 0.1672,-0.46061 0.21768,-0.81395 0.0567,-0.35335 0.0852,-0.81396 0.0852,-1.38185 0,-0.60574 -0.0285,-1.09474 -0.0852,-1.467 -0.0504,-0.37229 -0.12299,-0.65306 -0.21768,-0.84234 -0.0947,-0.18931 -0.20191,-0.31551 -0.3218,-0.3786 -0.11989,-0.0694 -0.24923,-0.10413 -0.38804,-0.10413 -0.13881,0 -0.27133,0.0347 -0.39752,0.10413 -0.11988,0.0631 -0.22715,0.19244 -0.32181,0.38806 -0.0947,0.18928 -0.17036,0.47006 -0.22714,0.84234 -0.0567,0.37227 -0.0852,0.8676 -0.0852,1.48595 0,0.56158 0.0253,1.01586 0.0756,1.36288 0.0567,0.34706 0.13253,0.61522 0.22716,0.80451 0.0947,0.18294 0.20191,0.30917 0.32179,0.37859 0.12623,0.0694 0.25555,0.10413 0.38805,0.10413 z m 3.60599,0.67198 -0.30287,-0.23661 c 0.0694,-0.37227 0.1893,-0.70672 0.35965,-1.00326 0.17035,-0.29655 0.36911,-0.57102 0.59627,-0.82341 0.22715,-0.25237 0.45745,-0.49216 0.69092,-0.7193 0.23976,-0.23347 0.46061,-0.46378 0.66252,-0.69092 0.20192,-0.23347 0.36596,-0.47954 0.49216,-0.73825 0.12623,-0.26502 0.18931,-0.55209 0.18931,-0.86129 0,-0.37858 -0.0916,-0.65304 -0.27449,-0.8234 -0.17667,-0.17037 -0.39752,-0.25555 -0.66252,-0.25555 -0.36597,0 -0.6499,0.1388 -0.85181,0.41644 0.16403,0.0442 0.29655,0.13881 0.39751,0.28393 0.101,0.14514 0.15142,0.29342 0.15142,0.44485 0,0.23345 -0.0916,0.42274 -0.27448,0.56787 -0.18299,0.1388 -0.38803,0.20821 -0.6152,0.20821 -0.23346,0 -0.44167,-0.082 -0.62465,-0.24608 -0.18299,-0.17032 -0.27448,-0.41011 -0.27448,-0.7193 0,-0.29025 0.0978,-0.55526 0.2934,-0.79503 0.20191,-0.24608 0.47954,-0.44483 0.8329,-0.59626 0.35965,-0.15146 0.77924,-0.22716 1.25878,-0.22716 0.43537,0 0.82973,0.0695 1.18309,0.20822 0.35333,0.1388 0.63411,0.35019 0.84234,0.63413 0.21454,0.27763 0.3218,0.63098 0.3218,1.06004 0,0.34073 -0.0661,0.64359 -0.19876,0.90862 -0.13248,0.25869 -0.30917,0.49216 -0.53001,0.70037 -0.21454,0.20191 -0.45431,0.39121 -0.71933,0.56786 -0.265,0.17032 -0.53316,0.34073 -0.80448,0.51109 -0.26501,0.16401 -0.51424,0.33443 -0.7477,0.5111 -0.22716,0.17663 -0.41645,0.37544 -0.56788,0.59626 0.18298,-0.082 0.40699,-0.15137 0.67199,-0.20822 0.2713,-0.0631 0.52054,-0.0948 0.7477,-0.0948 h 0.50163 c 0.30287,0 0.57418,-0.0694 0.81394,-0.20823 0.23977,-0.14505 0.39436,-0.34386 0.46378,-0.59625 h 0.265 c 0.101,0.0884 0.18299,0.21452 0.24609,0.37859 0.0631,0.16401 0.0946,0.33756 0.0946,0.52055 0,0.19559 -0.0505,0.39435 -0.15143,0.59627 -0.0946,0.19559 -0.2587,0.35965 -0.49217,0.49216 -0.23346,0.12614 -0.56157,0.18926 -0.98432,0.18926 -0.22083,0 -0.42275,-0.013 -0.60573,-0.0379 -0.18299,-0.0253 -0.36911,-0.0504 -0.5584,-0.0756 -0.18931,-0.0253 -0.41015,-0.0379 -0.66254,-0.0379 -0.20191,0 -0.40382,0.0153 -0.60573,0.0474 -0.20192,0.0317 -0.38805,0.0821 -0.55841,0.15136 l 0.009,-0.0103 z m 7.89345,-0.0285 c -0.5174,0 -0.97486,-0.11996 -1.37237,-0.35965 -0.39121,-0.24609 -0.69723,-0.60891 -0.91807,-1.08844 -0.22084,-0.47953 -0.33126,-1.07898 -0.33126,-1.79829 0,-0.80763 0.13246,-1.47016 0.39751,-1.98756 0.26502,-0.52371 0.61835,-0.90859 1.06004,-1.15468 0.44168,-0.25238 0.92752,-0.37858 1.45754,-0.37858 0.37228,0 0.70987,0.0505 1.01272,0.15142 0.30287,0.0946 0.5458,0.24292 0.72877,0.44484 0.18299,0.19561 0.27447,0.44169 0.27447,0.73824 0,0.23977 -0.0694,0.44168 -0.20821,0.60574 -0.13881,0.164 -0.33441,0.24608 -0.58682,0.24608 -0.22714,0 -0.41643,-0.0661 -0.56785,-0.19877 -0.15146,-0.13247 -0.22718,-0.29971 -0.22718,-0.50161 0,-0.101 0.0315,-0.20192 0.0946,-0.30287 0.0694,-0.10101 0.15774,-0.17983 0.265,-0.23662 -0.082,-0.0946 -0.19556,-0.16404 -0.34072,-0.20821 -0.1388,-0.0504 -0.28711,-0.0756 -0.44483,-0.0756 -0.22715,0 -0.43852,0.0725 -0.63413,0.21768 -0.1893,0.14513 -0.34389,0.38489 -0.46377,0.71931 -0.11348,0.33441 -0.17035,0.79189 -0.17035,1.37239 0,0.0504 0.003,0.0851 0.008,0.10414 0.16405,-0.1577 0.37858,-0.27765 0.64358,-0.35967 0.27134,-0.0884 0.55212,-0.13248 0.84237,-0.13248 0.3912,0 0.74137,0.0788 1.05056,0.23662 0.31548,0.15769 0.56157,0.38174 0.73825,0.672 0.18297,0.28392 0.27447,0.62782 0.27447,1.03162 0,0.41645 -0.11046,0.79504 -0.33126,1.13578 -0.21455,0.3344 -0.51741,0.60258 -0.90861,0.80449 -0.38489,0.2019 -0.83287,0.30285 -1.34397,0.30285 z m 0.0285,-0.70984 c 0.16404,0 0.31864,-0.0379 0.46375,-0.11349 0.15144,-0.0818 0.27447,-0.21768 0.36912,-0.40698 0.0946,-0.18927 0.14196,-0.45113 0.14196,-0.78555 0,-0.50479 -0.10414,-0.86131 -0.31232,-1.0695 -0.20193,-0.21455 -0.44168,-0.32182 -0.71931,-0.32182 -0.21455,0 -0.40383,0.041 -0.56789,0.12298 -0.16404,0.0821 -0.29024,0.20508 -0.37858,0.36914 -0.007,0.0631 -0.008,0.1293 -0.008,0.19875 v 0.18927 c 0,0.4606 0.0473,0.82341 0.14196,1.08844 0.10101,0.265 0.22716,0.45428 0.37859,0.56786 0.15774,0.10716 0.32179,0.16094 0.49217,0.16094 z"
         style="font-size:7.31845px;line-height:88%;font-family:Calistoga;-inkscape-font-specification:'Calistoga, Normal';fill:url(#linearGradient12);stroke-width:1.49049;paint-order:markers fill stroke"
         id="path1" />
      <path
         d="m 35.440887,106.60181 c -0.082,-0.16404 -0.157746,-0.3912 -0.227159,-0.68145 -0.06311,-0.29656 -0.116779,-0.60573 -0.160884,-0.92753 -0.03789,-0.3218 -0.05679,-0.60889 -0.05679,-0.86128 h 0.946455 c 0.100996,0.53633 0.299725,0.95592 0.59628,1.25879 0.302869,0.30286 0.653056,0.4543 1.050564,0.4543 0.195605,0 0.347044,-0.0378 0.454307,-0.11348 0.113543,-0.082 0.195604,-0.17984 0.246082,-0.29341 0.05044,-0.11349 0.07579,-0.22084 0.07579,-0.3218 0,-0.20821 -0.06945,-0.38805 -0.208224,-0.53948 -0.1388,-0.15144 -0.315479,-0.2871 -0.530017,-0.40699 -0.208215,-0.12628 -0.419598,-0.23976 -0.634122,-0.34071 -0.555258,-0.27133 -0.993788,-0.5805 -1.315588,-0.92754 -0.321799,-0.35334 -0.482693,-0.79503 -0.482693,-1.32504 0,-0.3849 0.09467,-0.70984 0.283933,-0.97485 0.189302,-0.27133 0.441684,-0.47954 0.757175,-0.624671 0.321801,-0.145128 0.681453,-0.217679 1.07896,-0.217679 0.182987,0 0.397524,0.01898 0.643603,0.05682 0.252392,0.03782 0.457449,0.100975 0.6152,0.1893 l 0.804482,-0.246071 c 0.08833,0.145114 0.148292,0.337561 0.17983,0.577331 0.03789,0.23346 0.06001,0.47638 0.06623,0.72877 0.01295,0.2524 0.01894,0.4827 0.01894,0.69092 v 0.14196 H 38.85766 c -0.1325,-0.53632 -0.318644,-0.89912 -0.558415,-1.08842 -0.239769,-0.1956 -0.498472,-0.29341 -0.776107,-0.29341 -0.25869,0 -0.45114,0.0757 -0.577335,0.22716 -0.119886,0.14513 -0.179829,0.3281 -0.179829,0.54894 0,0.20191 0.05366,0.37227 0.160884,0.5111 0.113556,0.1388 0.2587,0.26185 0.435373,0.36912 0.176671,0.10098 0.362811,0.20191 0.558416,0.30286 0.214526,0.10097 0.438529,0.21769 0.671989,0.35019 0.233455,0.12628 0.447993,0.27448 0.643585,0.44485 0.201915,0.17035 0.362811,0.37227 0.482708,0.60572 0.126228,0.23346 0.189283,0.50794 0.189283,0.82342 0,0.34705 -0.08833,0.6657 -0.264999,0.95594 -0.176673,0.28393 -0.429065,0.51423 -0.757176,0.6909 -0.3281,0.17037 -0.72562,0.25555 -1.192535,0.25555 -0.21454,0 -0.451153,-0.0252 -0.709855,-0.0757 -0.252392,-0.044 -0.523705,-0.12628 -0.813947,-0.24608 z m 6.218222,1.85507 c -0.391207,0 -0.684609,-0.082 -0.880214,-0.24609 -0.195591,-0.16405 -0.293399,-0.35965 -0.293399,-0.58681 0,-0.15143 0.03467,-0.28709 0.104107,-0.40698 0.07565,-0.11981 0.170355,-0.20506 0.283946,-0.25555 0.170357,0.20192 0.422751,0.30287 0.757162,0.30287 0.189301,0 0.381741,-0.0946 0.577347,-0.28392 0.201903,-0.18299 0.369121,-0.47323 0.501626,-0.87074 H 41.93357 l -1.457548,-3.53977 c -0.07579,-0.18298 -0.141965,-0.3218 -0.19876,-0.41645 -0.05679,-0.0946 -0.182987,-0.14197 -0.378576,-0.14197 0,-0.10715 0.01569,-0.21138 0.04733,-0.31233 0.03156,-0.10098 0.08198,-0.18929 0.151431,-0.26502 h 2.233641 c 0.15145,0.16404 0.227161,0.35651 0.227161,0.57735 -0.157745,0 -0.271325,0.041 -0.340735,0.12298 -0.06311,0.082 -0.09467,0.18615 -0.09467,0.31233 0,0.0442 0.0027,0.0946 0.0091,0.15143 0.0065,0.0505 0.01894,0.10414 0.03788,0.1609 l 0.880215,2.5649 0.624665,-2.68795 c 0.01894,-0.0883 0.02846,-0.16405 0.02846,-0.22715 0,-0.26501 -0.154589,-0.39751 -0.463776,-0.39751 0,-0.10716 0.01295,-0.21138 0.03789,-0.31234 0.02523,-0.10097 0.07255,-0.1893 0.141979,-0.26501 h 1.826621 c 0.06945,0.0757 0.116778,0.16404 0.141978,0.26501 0.03156,0.10098 0.04733,0.20507 0.04733,0.31234 -0.157746,0 -0.280791,0.0378 -0.369123,0.11363 -0.08198,0.0757 -0.151448,0.2019 -0.208225,0.37857 l -1.07896,3.35994 c -0.277637,0.896 -0.577349,1.5522 -0.899135,1.96865 -0.315491,0.41643 -0.722478,0.62466 -1.220936,0.62466 z m 4.183341,-1.99703 c -0.06945,-0.0695 -0.126228,-0.14515 -0.170357,-0.22716 -0.03789,-0.082 -0.05679,-0.17352 -0.05679,-0.27448 0.189303,0 0.324957,-0.041 0.406976,-0.12298 0.08198,-0.082 0.122991,-0.21452 0.122991,-0.39749 v -2.76368 c 0,-0.16405 -0.04733,-0.28395 -0.141964,-0.35966 -0.08833,-0.0757 -0.25239,-0.11348 -0.49216,-0.11348 v -0.42591 c 0.145116,-0.082 0.328099,-0.15774 0.548948,-0.22716 0.227147,-0.0695 0.444828,-0.12298 0.653052,-0.16088 0.214539,-0.0442 0.378588,-0.0662 0.492161,-0.0662 0.1325,0 0.239771,0.041 0.321801,0.12298 0.08833,0.082 0.1388,0.2587 0.151429,0.53001 0.157746,-0.1956 0.356498,-0.35334 0.596267,-0.47322 0.246082,-0.11982 0.530026,-0.17984 0.851827,-0.17984 0.441674,0 0.772942,0.11349 0.993777,0.34073 0.227158,0.22084 0.340732,0.59943 0.340732,1.13575 v 2.58385 c 0,0.30917 0.151429,0.49215 0.454295,0.54894 l 0.0091,0.27448 c -0.06311,0.0631 -0.164041,0.11981 -0.302869,0.17035 -0.138798,0.0442 -0.290243,0.0788 -0.454294,0.10414 -0.157745,0.0252 -0.306021,0.0378 -0.444837,0.0378 -0.271326,0 -0.47323,-0.0505 -0.605738,-0.15143 -0.126246,-0.10098 -0.189319,-0.26186 -0.189319,-0.48269 v -2.95297 c 0,-0.25871 -0.05679,-0.43853 -0.170356,-0.53949 -0.113543,-0.10097 -0.252392,-0.15144 -0.416443,-0.15144 -0.258702,0 -0.476394,0.10413 -0.653067,0.31233 v 2.88672 c 0,0.18298 0.03788,0.31548 0.113557,0.39751 0.08198,0.082 0.217694,0.12298 0.406986,0.12298 0,0.18929 -0.07255,0.35649 -0.217694,0.50161 z m 7.325597,0.0662 c -0.265014,0 -0.507939,-0.0473 -0.728787,-0.14197 -0.220839,-0.10097 -0.400663,-0.27132 -0.539482,-0.5111 -0.1325,-0.23977 -0.198746,-0.56787 -0.198746,-0.98432 v -2.60276 h -0.596281 v -0.57734 c 0.170375,-0.0252 0.331268,-0.13247 0.482694,-0.32179 0.151449,-0.1893 0.280791,-0.42275 0.388054,-0.70038 0.113543,-0.27763 0.186144,-0.55526 0.217693,-0.832887 0.113542,-0.01898 0.217681,-0.02848 0.312321,-0.02848 0.252392,0 0.425908,0.07249 0.52056,0.217677 0.100996,0.14514 0.151431,0.28079 0.151431,0.40699 v 0.99378 h 1.097895 c 0,0.15143 -0.0091,0.30286 -0.02844,0.4543 -0.01295,0.14514 -0.05368,0.27448 -0.122993,0.38806 h -0.927521 v 2.66904 c 0,0.20191 0.04099,0.33756 0.122993,0.40698 0.08198,0.0631 0.186145,0.0946 0.312334,0.0946 0.126228,0 0.252379,-0.0315 0.378573,-0.0946 0.1325,-0.0695 0.236614,-0.14828 0.312335,-0.23662 0.06944,0.0568 0.116778,0.14196 0.141978,0.25555 0.02522,0.10715 0.03789,0.1893 0.03789,0.24608 0,0.1388 -0.04733,0.27763 -0.141978,0.41644 -0.09467,0.1388 -0.242924,0.25555 -0.444828,0.3502 -0.195604,0.0883 -0.44484,0.13247 -0.747707,0.13247 z m 5.886967,-0.009 c -0.309164,0 -0.545792,-0.0473 -0.70984,-0.14197 -0.164041,-0.0946 -0.246081,-0.24605 -0.246081,-0.45426 v -3.04764 c 0,-0.20191 -0.05679,-0.3565 -0.170357,-0.46376 -0.113542,-0.11349 -0.261857,-0.17036 -0.444839,-0.17036 -0.119899,0 -0.249236,0.041 -0.388054,0.12298 -0.132484,0.0758 -0.233459,0.17982 -0.302867,0.31234 v 2.76365 c 0,0.18298 0.03788,0.31548 0.113557,0.39752 0.08198,0.0757 0.217692,0.11349 0.406985,0.11349 0,0.1956 -0.07255,0.36596 -0.217693,0.51108 h -2.091669 c -0.145134,-0.14512 -0.217695,-0.31548 -0.217695,-0.51108 0.189303,0 0.321801,-0.0378 0.397523,-0.11349 0.08198,-0.082 0.122992,-0.21454 0.122992,-0.39752 v -5.12982 c 0,-0.14511 -0.04099,-0.25869 -0.122992,-0.340729 -0.082,-0.08198 -0.252392,-0.122977 -0.511095,-0.122977 v -0.38805 c 0.157746,-0.08198 0.34072,-0.157742 0.548947,-0.227143 0.214537,-0.06947 0.425907,-0.122977 0.634133,-0.160892 0.214527,-0.04401 0.391196,-0.06616 0.530015,-0.06616 0.145134,0 0.249235,0.03467 0.312334,0.104136 0.06311,0.06314 0.09467,0.173521 0.09467,0.331264 v 1.864531 l -0.01894,0.75716 c 0.164041,-0.20822 0.375432,-0.38489 0.634133,-0.53002 0.25869,-0.14512 0.552103,-0.21767 0.880201,-0.21767 0.895979,0 1.343976,0.46691 1.343976,1.40076 v 2.65008 c 0,0.3218 0.15143,0.5111 0.454307,0.56789 l 0.0091,0.27446 c -0.227159,0.20823 -0.574192,0.31234 -1.041108,0.31234 z m 3.776366,0.0285 c -0.706699,0 -1.27141,-0.22399 -1.694162,-0.67199 -0.416452,-0.448 -0.624668,-1.07267 -0.624668,-1.874 0,-0.54896 0.104107,-1.02218 0.312335,-1.41968 0.208213,-0.40384 0.489006,-0.71301 0.842346,-0.92754 0.359655,-0.21455 0.766629,-0.3218 1.220935,-0.3218 0.567881,0 1.022175,0.16722 1.36291,0.50163 0.34703,0.3281 0.520547,0.79186 0.520547,1.39129 0,0.23977 -0.04099,0.45115 -0.122992,0.63414 -0.07565,0.17667 -0.236615,0.265 -0.482695,0.265 h -2.044363 c 0.01894,0.49847 0.132529,0.85182 0.340734,1.06004 0.214525,0.20822 0.492161,0.31233 0.83288,0.31233 0.214539,0 0.413287,-0.0315 0.596268,-0.0946 0.182986,-0.0695 0.353356,-0.16404 0.511094,-0.28394 0.05679,0.0505 0.100996,0.12931 0.1325,0.23662 0.03789,0.10098 0.05678,0.18614 0.05678,0.25555 0,0.10098 -0.07255,0.22714 -0.217693,0.37857 -0.138799,0.14513 -0.34072,0.27448 -0.605734,0.38805 -0.258691,0.11348 -0.571023,0.17036 -0.936988,0.17036 z m -0.709865,-3.1423 h 0.955936 c 0.107199,0 0.173515,-0.041 0.198746,-0.12297 0.03156,-0.082 0.04733,-0.18299 0.04733,-0.30287 0,-0.40383 -0.05044,-0.66883 -0.151429,-0.79503 -0.09467,-0.13247 -0.208227,-0.19877 -0.340736,-0.19877 -0.1072,0 -0.214523,0.041 -0.321786,0.12298 -0.107199,0.082 -0.195604,0.22716 -0.265014,0.43539 -0.06945,0.2019 -0.110435,0.489 -0.122992,0.86127 z m 5.03517,3.12333 c -0.265016,0 -0.507939,-0.0473 -0.728775,-0.14197 -0.220849,-0.10097 -0.400678,-0.27133 -0.539494,-0.5111 -0.1325,-0.23977 -0.198748,-0.56787 -0.198748,-0.98431 v -2.60276 h -0.596281 v -0.57735 c 0.170376,-0.0252 0.331268,-0.13247 0.482708,-0.32178 0.15143,-0.18932 0.280778,-0.42276 0.388041,-0.7004 0.113542,-0.27761 0.186144,-0.55526 0.217692,-0.83287 0.113557,-0.01898 0.217681,-0.02848 0.312334,-0.02848 0.252379,0 0.425909,0.07249 0.520547,0.21768 0.100996,0.14513 0.15145,0.28079 0.15145,0.40698 v 0.99377 h 1.097895 c 0,0.15146 -0.0091,0.30287 -0.02845,0.45432 -0.01295,0.14512 -0.05366,0.27446 -0.122992,0.38805 h -0.927534 v 2.66902 c 0,0.20191 0.04099,0.33756 0.122993,0.40698 0.08198,0.0631 0.186144,0.0946 0.312333,0.0946 0.126229,0 0.252393,-0.0315 0.378575,-0.0946 0.132499,-0.0695 0.236627,-0.14828 0.312333,-0.23663 0.06945,0.0568 0.116779,0.14197 0.141979,0.25555 0.02523,0.10716 0.03788,0.1893 0.03788,0.24609 0,0.1388 -0.04733,0.27761 -0.141979,0.41643 -0.09467,0.1388 -0.242926,0.25555 -0.44483,0.35019 -0.195604,0.0883 -0.444837,0.13247 -0.747706,0.13247 z m 2.915083,-5.86806 c -0.271312,0 -0.489004,-0.0788 -0.653054,-0.23662 -0.157746,-0.16406 -0.236613,-0.38174 -0.236613,-0.653066 0,-0.265001 0.08198,-0.479543 0.24608,-0.643585 0.170357,-0.164056 0.391196,-0.246085 0.66252,-0.246085 0.277624,0 0.495316,0.08198 0.653054,0.246085 0.164061,0.164042 0.246081,0.378584 0.246081,0.643585 0,0.271326 -0.08522,0.489006 -0.255548,0.653066 -0.164041,0.15775 -0.384885,0.23662 -0.66252,0.23662 z m -1.060029,5.80181 c -0.06945,-0.0695 -0.122993,-0.14515 -0.160903,-0.22716 -0.03789,-0.082 -0.05679,-0.17669 -0.05679,-0.28394 0.182987,0 0.318645,-0.0378 0.406986,-0.11349 0.08833,-0.082 0.132485,-0.21768 0.132485,-0.40697 v -2.74522 c 0,-0.16405 -0.04099,-0.28709 -0.122992,-0.36912 -0.07564,-0.082 -0.242912,-0.12298 -0.501615,-0.12298 V 101.775 c 0.09467,-0.0568 0.23977,-0.11982 0.435376,-0.1893 0.19559,-0.0757 0.406971,-0.1388 0.634119,-0.18929 0.233458,-0.0505 0.441685,-0.0757 0.624668,-0.0757 0.145133,0 0.249235,0.0347 0.312333,0.10414 0.06311,0.0631 0.09467,0.17349 0.09467,0.33126 v 3.68173 c 0,0.18931 0.04733,0.3218 0.141963,0.39751 0.09467,0.0757 0.233472,0.11363 0.416454,0.11363 0,0.10716 -0.01894,0.20192 -0.05678,0.28394 -0.03789,0.082 -0.09143,0.15775 -0.160905,0.22716 z m 5.06354,0.14196 c -0.460605,0 -0.867578,-0.10414 -1.220935,-0.31233 -0.347032,-0.20822 -0.621498,-0.50477 -0.823413,-0.88967 -0.195603,-0.39122 -0.293401,-0.85813 -0.293401,-1.40076 0,-0.56157 0.1072,-1.04111 0.321788,-1.43864 0.214539,-0.40381 0.507937,-0.70983 0.880215,-0.91805 0.372275,-0.21454 0.79187,-0.32179 1.258787,-0.32179 0.48585,0 0.854971,0.11679 1.107362,0.35017 0.252392,0.22716 0.378587,0.50795 0.378587,0.84235 0,0.30287 -0.07565,0.53633 -0.227147,0.7004 -0.15145,0.16404 -0.347043,0.24607 -0.586813,0.24607 -0.195592,0 -0.359655,-0.0725 -0.492162,-0.21769 -0.132486,-0.14512 -0.198746,-0.32179 -0.198746,-0.53002 0,-0.15144 0.02523,-0.27446 0.07565,-0.36912 0.05679,-0.0946 0.126228,-0.1735 0.208213,-0.2366 -0.06311,-0.0378 -0.11678,-0.06 -0.160884,-0.0662 -0.03788,-0.013 -0.07565,-0.019 -0.113543,-0.019 -0.119885,0 -0.242926,0.0473 -0.369121,0.14196 -0.126228,0.0946 -0.233457,0.26184 -0.321801,0.50161 -0.08198,0.23977 -0.122991,0.5742 -0.122991,1.00325 0,0.69409 0.100996,1.18308 0.302865,1.46702 0.201914,0.27763 0.48585,0.41644 0.851815,0.41644 0.170356,0 0.340732,-0.0252 0.511093,-0.0757 0.176671,-0.0505 0.324957,-0.12298 0.444841,-0.21768 0.05044,0.0631 0.09143,0.14197 0.122991,0.23661 0.03789,0.0883 0.05679,0.16721 0.05679,0.23662 0,0.13247 -0.07255,0.26815 -0.217693,0.40697 -0.1388,0.13247 -0.328098,0.24293 -0.567868,0.33127 -0.239781,0.0883 -0.507938,0.13247 -0.804494,0.13247 z m 4.391542,0 c -0.08198,-0.16404 -0.157707,-0.3912 -0.227147,-0.68146 -0.06311,-0.29655 -0.116778,-0.60574 -0.160884,-0.92752 -0.03789,-0.3218 -0.05679,-0.60889 -0.05679,-0.86128 h 0.946455 c 0.100996,0.53633 0.299712,0.95592 0.596268,1.25879 0.302867,0.30287 0.653067,0.45431 1.050576,0.45431 0.195604,0 0.34703,-0.0378 0.454306,-0.11348 0.113542,-0.082 0.195605,-0.17984 0.24608,-0.29342 0.05044,-0.11363 0.07565,-0.22083 0.07565,-0.32179 0,-0.20822 -0.06945,-0.38804 -0.208228,-0.53947 -0.138815,-0.15146 -0.315488,-0.28711 -0.530014,-0.40699 -0.208226,-0.12629 -0.419595,-0.23978 -0.634133,-0.34072 -0.555259,-0.27133 -0.993775,-0.58051 -1.315576,-0.92754 -0.3218,-0.35334 -0.482693,-0.79503 -0.482693,-1.32504 0,-0.3849 0.09467,-0.70986 0.283933,-0.97486 0.189303,-0.27132 0.441686,-0.47953 0.757174,-0.624658 0.321801,-0.145142 0.681456,-0.217707 1.078962,-0.217707 0.182987,0 0.397508,0.01898 0.643587,0.05682 0.252392,0.03782 0.457463,0.100975 0.615201,0.189315 l 0.804494,-0.246086 c 0.08832,0.145128 0.148291,0.337576 0.179834,0.577346 0.03782,0.23346 0.05983,0.47638 0.06616,0.72878 0.01295,0.25239 0.01898,0.48269 0.01898,0.69092 v 0.14196 h -0.785567 c -0.132499,-0.53632 -0.318645,-0.89913 -0.558413,-1.08843 -0.239769,-0.1956 -0.498471,-0.29339 -0.776096,-0.29339 -0.258701,0 -0.45115,0.0757 -0.577347,0.22714 -0.1199,0.14513 -0.179828,0.32811 -0.179828,0.54894 0,0.20192 0.05368,0.37229 0.160903,0.5111 0.113556,0.1388 0.258691,0.26185 0.435361,0.36912 0.176673,0.10098 0.36281,0.20192 0.558413,0.30287 0.214537,0.10098 0.438529,0.21768 0.671987,0.35018 0.233473,0.12629 0.447996,0.27448 0.643602,0.44485 0.201921,0.17036 0.362814,0.37227 0.482699,0.60573 0.126287,0.23345 0.1893,0.50793 0.1893,0.82342 0,0.34704 -0.08832,0.66569 -0.265014,0.95593 -0.176671,0.28393 -0.429065,0.51423 -0.757162,0.69091 -0.328111,0.17037 -0.725619,0.25555 -1.192549,0.25555 -0.214538,0 -0.45115,-0.0252 -0.709841,-0.0757 -0.25239,-0.044 -0.523715,-0.12629 -0.813961,-0.24609 z m 5.205516,1.6563 c -0.06948,-0.0695 -0.126287,-0.14512 -0.170357,-0.22715 -0.03782,-0.082 -0.05682,-0.17351 -0.05682,-0.27447 0.1893,0 0.309171,-0.041 0.359656,-0.12297 0.05682,-0.082 0.08529,-0.21455 0.08529,-0.39753 v -4.53353 c 0,-0.16404 -0.04733,-0.28394 -0.141964,-0.35965 -0.08832,-0.0758 -0.2524,-0.11349 -0.492171,-0.11349 v -0.42591 c 0.1388,-0.082 0.302871,-0.15774 0.492171,-0.22715 0.195599,-0.0695 0.384898,-0.12298 0.567869,-0.16089 0.182986,-0.0442 0.328114,-0.0662 0.435371,-0.0662 0.126286,0 0.230306,0.0252 0.312335,0.0758 0.08832,0.0505 0.151443,0.15142 0.189286,0.30287 0.145114,-0.1388 0.315499,-0.23662 0.511098,-0.29341 0.201914,-0.0568 0.413292,-0.0853 0.63412,-0.0853 0.334428,0 0.646763,0.0883 0.937005,0.26501 0.290243,0.17036 0.523699,0.42906 0.70037,0.7761 0.182985,0.34704 0.274478,0.78871 0.274478,1.32506 0,0.59941 -0.116793,1.11366 -0.350178,1.54271 -0.22717,0.42276 -0.536341,0.74771 -0.92754,0.97485 -0.3849,0.22086 -0.813956,0.33128 -1.287184,0.33128 -0.05048,0 -0.107155,-0.003 -0.170385,-0.009 -0.06314,0 -0.129307,-0.003 -0.198749,-0.009 v 0.69091 c 0,0.18298 0.06616,0.31548 0.198749,0.39751 0.132471,0.082 0.268178,0.12298 0.406992,0.12298 0,0.1893 -0.07249,0.3565 -0.217678,0.50162 z m 2.063281,-2.38508 c 0.2587,0 0.479527,-0.15142 0.662513,-0.4543 0.182985,-0.30285 0.274477,-0.79502 0.274477,-1.47648 0,-0.43537 -0.04733,-0.77925 -0.141964,-1.03163 -0.08832,-0.2587 -0.211392,-0.44169 -0.369134,-0.54894 -0.157743,-0.11349 -0.33125,-0.17036 -0.520534,-0.17036 -0.100976,0 -0.189315,0.019 -0.265015,0.0568 v 3.53029 c 0.107157,0.0631 0.227157,0.0946 0.359643,0.0946 z m 5.432688,0.67199 c -0.706699,0 -1.271433,-0.22399 -1.694175,-0.67199 -0.416442,-0.44798 -0.624656,-1.07265 -0.624656,-1.87398 0,-0.54895 0.104136,-1.02218 0.312335,-1.4197 0.208214,-0.40382 0.488992,-0.71299 0.842348,-0.92754 0.359642,-0.21452 0.76662,-0.32178 1.220933,-0.32178 0.567871,0 1.02217,0.16719 1.362897,0.50161 0.347042,0.32811 0.52055,0.79187 0.52055,1.39131 0,0.23977 -0.04099,0.45114 -0.122979,0.63412 -0.07566,0.17667 -0.236592,0.26502 -0.482691,0.26502 h -2.044353 c 0.01898,0.49847 0.132615,0.85181 0.340728,1.06004 0.214542,0.20821 0.49217,0.31232 0.832883,0.31232 0.214543,0 0.413292,-0.0315 0.596264,-0.0946 0.182985,-0.0695 0.353356,-0.16404 0.511098,-0.28394 0.05682,0.0505 0.100976,0.1293 0.132472,0.23662 0.03797,0.10096 0.05682,0.18615 0.05682,0.25555 0,0.10096 -0.07249,0.22714 -0.217692,0.37858 -0.1388,0.14512 -0.340728,0.27447 -0.605742,0.38805 -0.258685,0.11349 -0.57102,0.17036 -0.936991,0.17036 z m -0.709863,-3.14225 h 0.955934 c 0.107156,0 0.173521,-0.041 0.198749,-0.12297 0.0315,-0.082 0.04733,-0.18299 0.04733,-0.30286 0,-0.40384 -0.05048,-0.66884 -0.151429,-0.79503 -0.09464,-0.13247 -0.208228,-0.19876 -0.340713,-0.19876 -0.1073,0 -0.214542,0.041 -0.321799,0.12298 -0.107157,0.082 -0.195614,0.22714 -0.265014,0.43537 -0.06947,0.2019 -0.110464,0.489 -0.122978,0.86127 z m 5.470531,3.14225 c -0.706684,0 -1.271404,-0.22399 -1.694161,-0.67199 -0.416442,-0.44798 -0.62467,-1.07264 -0.62467,-1.87398 0,-0.54895 0.104136,-1.02218 0.312335,-1.4197 0.208228,-0.40382 0.489007,-0.71299 0.842363,-0.92754 0.359656,-0.21452 0.76662,-0.32178 1.220933,-0.32178 0.567884,0 1.022169,0.16719 1.362897,0.50162 0.347042,0.3281 0.520563,0.79186 0.520563,1.3913 0,0.23977 -0.04099,0.45114 -0.122977,0.63412 -0.07566,0.17667 -0.236607,0.26502 -0.482693,0.26502 h -2.044367 c 0.01898,0.49847 0.132615,0.85181 0.340728,1.06004 0.214529,0.20821 0.492156,0.31232 0.832884,0.31232 0.214543,0 0.413292,-0.0315 0.596263,-0.0946 0.182985,-0.0695 0.353357,-0.16404 0.511099,-0.28393 0.05682,0.0505 0.100976,0.12931 0.13247,0.23661 0.03798,0.10096 0.05682,0.18615 0.05682,0.25555 0,0.10096 -0.07249,0.22714 -0.217693,0.37858 -0.1388,0.14512 -0.340728,0.27447 -0.605742,0.38805 -0.258685,0.11349 -0.57102,0.17036 -0.93699,0.17036 z m -0.709834,-3.14219 h 0.955919 c 0.107156,0 0.173536,-0.041 0.19875,-0.12298 0.0315,-0.082 0.04733,-0.18299 0.04733,-0.30287 0,-0.40383 -0.05048,-0.66883 -0.151429,-0.79503 -0.09464,-0.13247 -0.208228,-0.19876 -0.340742,-0.19876 -0.107157,0 -0.214528,0.041 -0.321786,0.12298 -0.1073,0.082 -0.195598,0.22715 -0.265013,0.43538 -0.06947,0.2019 -0.110465,0.48901 -0.122977,0.86128 z m 5.48946,3.19902 c -0.46063,0 -0.867592,-0.10414 -1.220948,-0.31232 -0.347042,-0.20822 -0.621506,-0.50477 -0.82342,-0.88967 -0.1956,-0.39121 -0.293407,-0.85813 -0.293407,-1.40077 0,-0.56157 0.107157,-1.04111 0.321815,-1.43863 0.214528,-0.40381 0.507934,-0.70984 0.880204,-0.91804 0.372272,-0.21455 0.791866,-0.32182 1.258796,-0.32182 0.48584,0 0.85496,0.1168 1.10736,0.35019 0.25238,0.22715 0.37858,0.50794 0.37858,0.84235 0,0.30287 -0.0758,0.53633 -0.22715,0.70039 -0.15143,0.16404 -0.34703,0.24608 -0.5868,0.24608 -0.19562,0 -0.35966,-0.0725 -0.49217,-0.21769 -0.13247,-0.14511 -0.19875,-0.32178 -0.19875,-0.53001 0,-0.15146 0.0252,-0.27447 0.0758,-0.36912 0.0568,-0.0946 0.12629,-0.17352 0.20823,-0.23662 -0.0631,-0.0378 -0.1168,-0.06 -0.16091,-0.0662 -0.0378,-0.0129 -0.0757,-0.019 -0.11348,-0.019 -0.11996,0 -0.24293,0.0473 -0.36913,0.14196 -0.12628,0.0946 -0.23345,0.26185 -0.32179,0.50162 -0.082,0.23977 -0.12298,0.57418 -0.12298,1.00326 0,0.69407 0.10097,1.18307 0.30285,1.46701 0.20193,0.27762 0.48586,0.41645 0.85183,0.41645 0.17036,0 0.34073,-0.0252 0.51109,-0.0757 0.17667,-0.0505 0.32496,-0.12298 0.44485,-0.2177 0.0505,0.0631 0.0915,0.14197 0.12297,0.23662 0.0378,0.0883 0.0568,0.1672 0.0568,0.23661 0,0.13247 -0.0725,0.26816 -0.21769,0.40698 -0.1388,0.13247 -0.3281,0.24292 -0.56787,0.33126 -0.23977,0.0883 -0.50794,0.13247 -0.80449,0.13247 z m 6.18037,-0.0853 c -0.30918,0 -0.54579,-0.0473 -0.70985,-0.14197 -0.16403,-0.0946 -0.24607,-0.24607 -0.24607,-0.4543 v -3.0476 c 0,-0.2019 -0.0568,-0.35649 -0.17038,-0.46377 -0.11349,-0.11348 -0.26185,-0.17035 -0.44482,-0.17035 -0.11996,0 -0.24924,0.041 -0.38806,0.12298 -0.13247,0.0758 -0.23346,0.17983 -0.30286,0.31233 v 2.76367 c 0,0.18298 0.0379,0.31548 0.11348,0.39751 0.082,0.0757 0.21765,0.11348 0.40697,0.11348 0,0.19562 -0.0725,0.36598 -0.21769,0.5111 h -2.09167 c -0.14512,-0.14512 -0.21768,-0.31548 -0.21768,-0.5111 0.18927,0 0.32178,-0.0378 0.3975,-0.11348 0.082,-0.082 0.12298,-0.21453 0.12298,-0.39751 v -5.12985 c 0,-0.14511 -0.041,-0.25869 -0.12298,-0.340715 -0.082,-0.08198 -0.25236,-0.122977 -0.51109,-0.122977 v -0.388049 c 0.15776,-0.08198 0.34073,-0.157743 0.54896,-0.227156 0.21454,-0.06948 0.4259,-0.122979 0.63412,-0.160879 0.21455,-0.04416 0.39122,-0.06616 0.53003,-0.06616 0.14511,0 0.24923,0.03467 0.31233,0.104135 0.0631,0.06314 0.0946,0.173521 0.0946,0.331249 v 1.864542 l -0.019,0.75716 c 0.16402,-0.20821 0.37542,-0.38489 0.63413,-0.53001 0.2587,-0.14513 0.55209,-0.21768 0.88021,-0.21768 0.89598,0 1.34398,0.46691 1.34398,1.40075 v 2.6501 c 0,0.3218 0.15144,0.51108 0.45429,0.56787 l 0.008,0.27446 c -0.22715,0.20824 -0.57418,0.31234 -1.04111,0.31234 z"
         style="font-size:7.31845px;line-height:88%;font-family:Calistoga;-inkscape-font-specification:'Calistoga, Normal';fill:url(#linearGradient13);stroke-width:1.49049;paint-order:markers fill stroke"
         id="path1-5" />
    </g>
  </g>
</svg>
