<?xml version="1.0" encoding="UTF-8" standalone="no"?>
<!-- Created with Inkscape (http://www.inkscape.org/) -->

<svg
   width="170.76782mm"
   height="8.3064423mm"
   viewBox="0 0 170.76782 8.3064423"
   version="1.1"
   id="svg1"
   inkscape:version="1.4.2 (2aeb623e1d, 2025-05-12)"
   sodipodi:docname="logo-inkscape.svg"
   xmlns:inkscape="http://www.inkscape.org/namespaces/inkscape"
   xmlns:sodipodi="http://sodipodi.sourceforge.net/DTD/sodipodi-0.dtd"
   xmlns:xlink="http://www.w3.org/1999/xlink"
   xmlns="http://www.w3.org/2000/svg"
   xmlns:svg="http://www.w3.org/2000/svg">
  <sodipodi:namedview
     id="namedview1"
     pagecolor="#ffffff"
     bordercolor="#000000"
     borderopacity="0.25"
     inkscape:showpageshadow="2"
     inkscape:pageopacity="0.0"
     inkscape:pagecheckerboard="0"
     inkscape:deskcolor="#d1d1d1"
     inkscape:document-units="mm"
     inkscape:zoom="0.73762626"
     inkscape:cx="315.87812"
     inkscape:cy="330.79083"
     inkscape:window-width="1920"
     inkscape:window-height="1011"
     inkscape:window-x="3000"
     inkscape:window-y="300"
     inkscape:window-maximized="1"
     inkscape:current-layer="layer1" />
  <defs
     id="defs1">
    <linearGradient
       id="linearGradient1"
       inkscape:collect="always">
      <stop
         style="stop-color:#c1272d;stop-opacity:1;"
         offset="0.03871863"
         id="stop1" />
      <stop
         style="stop-color:#ed1c24;stop-opacity:1;"
         offset="0.14274256"
         id="stop4" />
      <stop
         style="stop-color:#f15a29;stop-opacity:1;"
         offset="0.26613685"
         id="stop3" />
      <stop
         style="stop-color:#fbb040;stop-opacity:1;"
         offset="0.36418629"
         id="stop5" />
      <stop
         style="stop-color:#fff200;stop-opacity:1;"
         offset="0.4619734"
         id="stop6" />
      <stop
         style="stop-color:#8dc63f;stop-opacity:1;"
         offset="0.58763754"
         id="stop7" />
      <stop
         style="stop-color:#00a651;stop-opacity:1;"
         offset="0.67768145"
         id="stop8" />
      <stop
         style="stop-color:#00a99d;stop-opacity:1;"
         offset="0.77314579"
         id="stop9" />
      <stop
         style="stop-color:#0071bc;stop-opacity:1;"
         offset="0.88010234"
         id="stop10" />
      <stop
         style="stop-color:#662d91;stop-opacity:1;"
         offset="1"
         id="stop2" />
    </linearGradient>
    <linearGradient
       inkscape:collect="always"
       xlink:href="#linearGradient1"
       id="linearGradient2"
       x1="21.404346"
       y1="65.292213"
       x2="192.17216"
       y2="65.292213"
       gradientUnits="userSpaceOnUse" />
    <linearGradient
       inkscape:collect="always"
       xlink:href="#linearGradient1"
       id="linearGradient11"
       gradientUnits="userSpaceOnUse"
       x1="21.404346"
       y1="65.292213"
       x2="192.17216"
       y2="65.292213" />
  </defs>
  <g
     inkscape:label="Layer 1"
     inkscape:groupmode="layer"
     id="layer1"
     transform="translate(-21.404346,-61.138989)">
    <g
       id="g1"
       style="fill:url(#linearGradient2)">
      <path
         style="font-size:7.31845px;line-height:88%;font-family:Calistoga;-inkscape-font-specification:'Calistoga, Normal';fill:url(#linearGradient11);stroke-width:1.15251;paint-order:markers fill stroke"
         d="m 21.748313,67.264532 q -0.09514,-0.190279 -0.175643,-0.526928 -0.07318,-0.343967 -0.124414,-0.717208 -0.04391,-0.373241 -0.04391,-0.665979 h 0.731845 q 0.117095,0.622068 0.461062,0.973354 0.351286,0.351285 0.812348,0.351285 0.226872,0 0.351286,-0.08782 0.131732,-0.09514 0.190279,-0.226872 0.05855,-0.131732 0.05855,-0.248827 0,-0.241509 -0.161006,-0.417152 -0.161006,-0.175643 -0.409833,-0.314693 -0.241509,-0.146369 -0.490336,-0.263465 -0.644024,-0.314693 -1.017265,-0.717208 -0.373241,-0.409833 -0.373241,-1.024583 0,-0.446425 0.219554,-0.7538 0.219553,-0.314693 0.585476,-0.483018 0.373241,-0.168324 0.834303,-0.168324 0.212235,0 0.497654,0.04391 0.292738,0.04391 0.4757,0.146369 l 0.622068,-0.19028 q 0.102458,0.168324 0.139051,0.446425 0.04391,0.270783 0.05123,0.563521 0.01464,0.292738 0.01464,0.534247 v 0.109777 h -0.607432 q -0.153687,-0.622069 -0.431788,-0.841622 -0.278101,-0.226872 -0.600113,-0.226872 -0.300057,0 -0.446426,0.175643 -0.13905,0.168324 -0.13905,0.42447 0,0.23419 0.124413,0.395196 0.131733,0.161006 0.336649,0.28542 0.204917,0.117095 0.431789,0.23419 0.248827,0.117095 0.51961,0.270783 0.270782,0.146369 0.497654,0.343967 0.234191,0.197598 0.373241,0.468381 0.146369,0.270782 0.146369,0.636705 0,0.402515 -0.204916,0.739163 -0.204917,0.329331 -0.585476,0.534247 -0.38056,0.197598 -0.922125,0.197598 -0.248827,0 -0.548884,-0.05855 -0.292738,-0.05123 -0.629387,-0.19028 z m 5.057038,-0.05855 q -0.548884,0 -0.892851,-0.300057 -0.336649,-0.307375 -0.336649,-0.783074 0,-0.475699 0.307375,-0.768437 0.314694,-0.292738 0.966036,-0.292738 0.212235,0 0.446425,0.04391 0.234191,0.03659 0.38056,0.117095 v -0.973354 q 0,-0.307375 -0.161006,-0.42447 -0.153688,-0.124414 -0.38056,-0.124414 -0.241509,0 -0.395196,0.117095 0.146369,0.05123 0.212235,0.161006 0.06587,0.102459 0.06587,0.226872 0,0.241509 -0.175643,0.387878 -0.168324,0.139051 -0.417151,0.139051 -0.278102,0 -0.446426,-0.161006 -0.168324,-0.168325 -0.168324,-0.417152 0,-0.248827 0.168324,-0.468381 0.168324,-0.226872 0.51961,-0.373241 0.358604,-0.146369 0.922125,-0.146369 1.471008,0 1.471008,1.163634 v 1.939389 q 0,0.351286 0.336649,0.42447 v 0.234191 q -0.09514,0.13905 -0.322012,0.212235 -0.226872,0.06587 -0.439107,0.06587 -0.497654,0 -0.702571,-0.343967 -0.146369,0.131732 -0.387878,0.241508 -0.241509,0.102459 -0.570839,0.102459 z m 0.475699,-0.592795 q 0.102459,0 0.212235,-0.02927 0.109777,-0.03659 0.182962,-0.08782 v -0.70989 q -0.07318,-0.05123 -0.19028,-0.08782 -0.109777,-0.03659 -0.219554,-0.03659 -0.190279,0 -0.32933,0.124413 -0.13905,0.117096 -0.13905,0.373241 0,0.197599 0.131732,0.329331 0.131732,0.124413 0.351285,0.124413 z m 2.466309,0.541566 q -0.168325,-0.168325 -0.168325,-0.395197 0.219554,0 0.307375,-0.09514 0.09514,-0.09514 0.09514,-0.307374 v -2.422407 h -0.446425 v -0.453744 q 0.161005,-0.03659 0.256145,-0.08782 0.09514,-0.05123 0.175643,-0.109776 -0.02927,-0.168325 -0.04391,-0.307375 -0.01464,-0.139051 -0.01464,-0.322012 0,-0.761119 0.402514,-1.13436 0.402515,-0.380559 1.090449,-0.380559 0.351286,0 0.578158,0.146369 0.226872,0.13905 0.336649,0.343967 0.109776,0.204916 0.109776,0.387878 0,0.270782 -0.146369,0.453744 -0.13905,0.182961 -0.380559,0.182961 -0.219554,0 -0.387878,-0.153688 -0.168324,-0.161005 -0.168324,-0.365922 0,-0.08782 0.03659,-0.197598 0.03659,-0.117095 0.182961,-0.226872 -0.02196,-0.03659 -0.0805,-0.05855 -0.05123,-0.02927 -0.09514,-0.02927 -0.117095,0 -0.219553,0.117096 -0.102458,0.109776 -0.168324,0.292738 -0.05855,0.182961 -0.05855,0.387877 0,0.219554 0.03659,0.417152 0.04391,0.197598 0.102459,0.322012 0.05855,0.117095 0.102458,0.117095 h 0.702571 q 0,0.161006 -0.02196,0.351286 -0.02196,0.182961 -0.102459,0.307375 h -0.622068 v 2.35654 q 0,0.161006 0.05123,0.270783 0.05123,0.102458 0.204917,0.153688 0.153687,0.04391 0.453744,0.04391 0,0.226872 -0.168325,0.395197 z m 4.076358,0.06587 q -0.819667,0 -1.310003,-0.51961 -0.483018,-0.51961 -0.483018,-1.449053 0,-0.636706 0.241509,-1.097768 0.241509,-0.468381 0.651342,-0.717208 0.417152,-0.248827 0.94408,-0.248827 0.658661,0 1.053857,0.387878 0.402515,0.380559 0.402515,1.075812 0,0.278101 -0.09514,0.490336 -0.08782,0.204916 -0.373241,0.204916 h -1.580785 q 0.02195,0.578158 0.263464,0.819667 0.248827,0.241509 0.644024,0.241509 0.248827,0 0.461062,-0.07319 0.212235,-0.0805 0.395196,-0.219553 0.06587,0.05855 0.102459,0.182961 0.04391,0.117095 0.04391,0.197598 0,0.117095 -0.168324,0.292738 -0.161006,0.168324 -0.468381,0.300057 -0.300056,0.131732 -0.724526,0.131732 z m -0.548884,-2.429726 h 0.739163 q 0.124414,0 0.153688,-0.09514 0.03659,-0.09514 0.03659,-0.23419 0,-0.468381 -0.117095,-0.61475 -0.109777,-0.153687 -0.263464,-0.153687 -0.124414,0 -0.248828,0.09514 -0.124413,0.09514 -0.204916,0.336648 -0.0805,0.234191 -0.09514,0.665979 z m 4.032459,1.163634 q -0.241509,0 -0.461062,-0.05123 v 0.02196 q 0,0.182961 0.13905,0.256146 0.146369,0.07318 0.504973,0.102458 0.929443,0.06587 1.397824,0.336649 0.475699,0.270782 0.475699,0.812348 0,0.285419 -0.161005,0.534247 -0.161006,0.248827 -0.446426,0.431788 -0.278101,0.182961 -0.636705,0.28542 -0.358604,0.102458 -0.746482,0.102458 -0.907488,0 -1.324639,-0.32933 -0.409834,-0.322012 -0.409834,-0.812348 0,-0.270783 0.175643,-0.490336 0.182961,-0.219554 0.51961,-0.336649 -0.161006,-0.117095 -0.204916,-0.263464 -0.03659,-0.146369 -0.03659,-0.322012 0,-0.117095 0.09514,-0.256146 0.09514,-0.13905 0.292738,-0.212235 -0.343967,-0.182961 -0.541565,-0.504973 -0.19028,-0.322012 -0.19028,-0.695253 0,-0.373241 0.182961,-0.673297 0.182962,-0.307375 0.541566,-0.490336 0.358604,-0.182961 0.892851,-0.182961 h 0.0073 q 0.06587,0 0.197598,0.0073 0.139051,0.0073 0.256146,0.02927 0.504973,0 0.768437,-0.0073 0.270783,-0.01464 0.409833,-0.02927 0.139051,-0.01464 0.270783,-0.03659 0.0805,0 0.117095,0.109777 0.03659,0.102458 0.03659,0.197598 0,0.139051 -0.06587,0.234191 -0.06587,0.09514 -0.219553,0.09514 -0.06587,0 -0.241509,-0.07318 -0.175643,-0.07319 -0.336649,-0.131732 0.248828,0.197598 0.373241,0.453744 0.131732,0.256145 0.131732,0.483017 0,0.687935 -0.46838,1.046539 -0.468381,0.358604 -1.295366,0.358604 z m 0.124414,-0.483018 q 0.241508,0 0.336648,-0.256146 0.102459,-0.256145 0.102459,-0.7538 0,-0.409833 -0.117096,-0.585476 -0.109776,-0.175643 -0.322011,-0.175643 -0.241509,0 -0.336649,0.256146 -0.09514,0.248827 -0.09514,0.687934 0,0.402515 0.102458,0.61475 0.102459,0.212235 0.329331,0.212235 z m -0.687935,1.9833 q 0,0.307375 0.19028,0.51961 0.19028,0.212235 0.680616,0.212235 0.365922,0 0.512291,-0.175643 0.146369,-0.175643 0.146369,-0.387878 0,-0.168324 -0.153687,-0.263464 -0.146369,-0.09514 -0.395196,-0.153687 -0.248828,-0.05855 -0.556203,-0.109777 -0.182961,-0.02927 -0.32933,-0.06587 -0.05123,0.09514 -0.07318,0.204917 -0.02196,0.117095 -0.02196,0.219553 z m 4.310556,-0.248827 q -0.512291,0 -0.797711,-0.314694 -0.285419,-0.314693 -0.285419,-0.84894 v -2.012574 q 0,-0.124413 -0.09514,-0.175642 -0.09514,-0.05123 -0.263464,-0.05123 v -0.322012 q 0.09514,-0.0805 0.395196,-0.168325 0.307375,-0.09514 0.687934,-0.09514 0.28542,0 0.373241,0.06587 0.09514,0.06587 0.09514,0.322011 v 2.459 q 0,0.219553 0.07318,0.336648 0.07318,0.117095 0.256145,0.117095 0.153688,0 0.292738,-0.09514 0.146369,-0.09514 0.241509,-0.219554 v -2.17358 q 0,-0.124413 -0.109776,-0.175642 -0.109777,-0.05123 -0.300057,-0.05123 v -0.322012 q 0.102458,-0.0805 0.402515,-0.168325 0.300056,-0.09514 0.709889,-0.09514 0.28542,0 0.387878,0.06587 0.102459,0.06587 0.102459,0.322011 v 2.69319 q 0,0.175643 0.08782,0.292738 0.09514,0.117095 0.263464,0.131732 v 0.204917 q -0.117095,0.13905 -0.373241,0.212235 -0.248827,0.06587 -0.483017,0.06587 -0.241509,0 -0.424471,-0.124414 -0.175642,-0.131732 -0.23419,-0.373241 -0.358604,0.497655 -1.002628,0.497655 z m 3.995865,0 q -0.548884,0 -0.892851,-0.300057 -0.336649,-0.307375 -0.336649,-0.783074 0,-0.475699 0.307375,-0.768437 0.314693,-0.292738 0.966035,-0.292738 0.212235,0 0.446426,0.04391 0.23419,0.03659 0.380559,0.117095 v -0.973354 q 0,-0.307375 -0.161006,-0.42447 -0.153687,-0.124414 -0.380559,-0.124414 -0.241509,0 -0.395196,0.117095 0.146369,0.05123 0.212235,0.161006 0.06587,0.102459 0.06587,0.226872 0,0.241509 -0.175643,0.387878 -0.168325,0.139051 -0.417152,0.139051 -0.278101,0 -0.446425,-0.161006 -0.168325,-0.168325 -0.168325,-0.417152 0,-0.248827 0.168325,-0.468381 0.168324,-0.226872 0.51961,-0.373241 0.358604,-0.146369 0.922124,-0.146369 1.471009,0 1.471009,1.163634 v 1.939389 q 0,0.351286 0.336649,0.42447 v 0.234191 q -0.09514,0.13905 -0.322012,0.212235 -0.226872,0.06587 -0.439107,0.06587 -0.497655,0 -0.702571,-0.343967 -0.146369,0.131732 -0.387878,0.241508 -0.241509,0.102459 -0.570839,0.102459 z m 0.475699,-0.592795 q 0.102458,0 0.212235,-0.02927 0.109777,-0.03659 0.182961,-0.08782 v -0.70989 q -0.07318,-0.05123 -0.19028,-0.08782 -0.109776,-0.03659 -0.219553,-0.03659 -0.19028,0 -0.32933,0.124413 -0.139051,0.117096 -0.139051,0.373241 0,0.197599 0.131732,0.329331 0.131732,0.124413 0.351286,0.124413 z m 2.429716,0.541566 q -0.0805,-0.0805 -0.124414,-0.175643 -0.04391,-0.09514 -0.04391,-0.219554 0.212235,0 0.300056,-0.08782 0.09514,-0.09514 0.09514,-0.314693 v -2.115034 q 0,-0.19028 -0.102458,-0.270783 -0.102459,-0.08782 -0.38056,-0.08782 v -0.32933 q 0.175643,-0.102458 0.417152,-0.175643 0.241509,-0.0805 0.475699,-0.124413 0.234191,-0.05123 0.365923,-0.05123 0.168324,0 0.241508,0.117095 0.0805,0.117095 0.0805,0.504973 0.0805,-0.153688 0.234191,-0.300057 0.161006,-0.153687 0.358604,-0.248827 0.197598,-0.09514 0.409833,-0.09514 0.343967,0 0.490336,0.175643 0.146369,0.175643 0.146369,0.453744 0,0.314693 -0.161006,0.512291 -0.161006,0.197599 -0.446425,0.197599 -0.248827,0 -0.395196,-0.139051 -0.146369,-0.146369 -0.146369,-0.32933 0,-0.117095 0.02195,-0.182961 -0.117095,0.02927 -0.226872,0.0805 -0.109777,0.04391 -0.219554,0.146369 v 2.195534 q 0,0.168325 0.05123,0.270783 0.05123,0.102458 0.197598,0.153688 0.153687,0.04391 0.453744,0.04391 0,0.124414 -0.02927,0.219554 -0.02927,0.09514 -0.109777,0.175643 z m 4.478877,0.09514 q -0.395196,0 -0.746482,-0.197598 -0.343967,-0.204916 -0.556202,-0.61475 -0.212235,-0.409833 -0.212235,-1.031901 0,-0.739163 0.270783,-1.2295 0.278101,-0.490336 0.717208,-0.731845 0.446425,-0.241508 0.951398,-0.241508 0.09514,0 0.212235,0.0073 0.117095,0.0073 0.234191,0.02196 l -0.02196,-0.439107 v -0.365922 q 0,-0.168324 -0.09514,-0.263464 -0.09514,-0.09514 -0.395196,-0.09514 v -0.300057 q 0.182961,-0.102458 0.431789,-0.182961 0.248827,-0.0805 0.490336,-0.124413 0.241509,-0.05123 0.387878,-0.05123 0.168324,0 0.241508,0.0805 0.0805,0.07318 0.0805,0.256146 v 4.595987 q 0,0.358604 0.351286,0.42447 l 0.0073,0.204916 q -0.102458,0.139051 -0.314693,0.204917 -0.212235,0.07318 -0.431788,0.07318 -0.19028,0 -0.402515,-0.08782 -0.212235,-0.0805 -0.300057,-0.256146 -0.153687,0.204917 -0.380559,0.270783 -0.219554,0.07318 -0.51961,0.07318 z m 0.504973,-0.622068 q 0.226872,0 0.343967,-0.131732 V 63.93464 q -0.153687,-0.212235 -0.409833,-0.212235 -0.197598,0 -0.358604,0.13905 -0.161006,0.131732 -0.256146,0.446426 -0.09514,0.307374 -0.09514,0.841621 0,0.753801 0.219554,1.119723 0.226872,0.358604 0.556202,0.358604 z m 3.168883,-3.959281 q -0.314693,0 -0.504973,-0.182961 -0.182961,-0.19028 -0.182961,-0.504974 0,-0.307374 0.19028,-0.497654 0.197598,-0.19028 0.512291,-0.19028 0.322012,0 0.504973,0.19028 0.19028,0.19028 0.19028,0.497654 0,0.314694 -0.197598,0.504974 -0.19028,0.182961 -0.512292,0.182961 z m -0.819666,4.48621 q -0.0805,-0.0805 -0.124414,-0.175643 -0.04391,-0.09514 -0.04391,-0.219554 0.212235,0 0.314693,-0.08782 0.102458,-0.09514 0.102458,-0.314693 v -2.122351 q 0,-0.19028 -0.09514,-0.285419 -0.08782,-0.09514 -0.387878,-0.09514 v -0.322015 q 0.109776,-0.06587 0.336648,-0.146369 0.226872,-0.08782 0.490337,-0.146369 0.270782,-0.05855 0.483017,-0.05855 0.168325,0 0.241509,0.0805 0.07319,0.07318 0.07319,0.256146 v 2.846877 q 0,0.219553 0.109776,0.307375 0.109777,0.08782 0.322012,0.08782 0,0.124414 -0.04391,0.219554 -0.04391,0.09514 -0.124413,0.175643 z m 2.341892,0 q -0.0805,-0.0805 -0.131732,-0.175643 -0.04391,-0.09514 -0.04391,-0.212235 0.219554,0 0.314693,-0.09514 0.09514,-0.09514 0.09514,-0.307375 v -2.136987 q 0,-0.19028 -0.109776,-0.278101 -0.102459,-0.08782 -0.38056,-0.08782 v -0.32933 q 0.168325,-0.09514 0.42447,-0.175643 0.263464,-0.0805 0.504973,-0.124414 0.248828,-0.05123 0.38056,-0.05123 0.153687,0 0.248827,0.09514 0.102458,0.09514 0.117095,0.409833 0.182961,-0.226872 0.461063,-0.365922 0.285419,-0.139051 0.65866,-0.139051 0.512292,0 0.768437,0.263464 0.263465,0.256146 0.263465,0.878214 v 1.997937 q 0,0.358604 0.351285,0.42447 l 0.0073,0.212235 q -0.07319,0.07319 -0.234191,0.131733 -0.161006,0.05123 -0.351285,0.0805 -0.182962,0.02927 -0.343968,0.02927 -0.314693,0 -0.46838,-0.117095 -0.146369,-0.117095 -0.146369,-0.373241 v -2.283356 q 0,-0.300057 -0.131732,-0.417152 -0.131733,-0.117095 -0.322012,-0.117095 -0.300057,0 -0.504973,0.241509 v 2.232127 q 0,0.212235 0.08782,0.307375 0.09514,0.09514 0.314693,0.09514 0,0.219553 -0.168324,0.387878 z m 5.840106,-1.200226 q -0.241509,0 -0.461063,-0.05123 v 0.02196 q 0,0.182961 0.139051,0.256146 0.146369,0.07318 0.504973,0.102458 0.929443,0.06587 1.397824,0.336649 0.475699,0.270782 0.475699,0.812348 0,0.285419 -0.161006,0.534247 -0.161006,0.248827 -0.446425,0.431788 -0.278101,0.182961 -0.636705,0.28542 -0.358604,0.102458 -0.746482,0.102458 -0.907488,0 -1.32464,-0.32933 -0.409833,-0.322012 -0.409833,-0.812348 0,-0.270783 0.175643,-0.490336 0.182961,-0.219554 0.51961,-0.336649 -0.161006,-0.117095 -0.204917,-0.263464 -0.03659,-0.146369 -0.03659,-0.322012 0,-0.117095 0.09514,-0.256146 0.09514,-0.13905 0.292738,-0.212235 -0.343967,-0.182961 -0.541565,-0.504973 -0.19028,-0.322012 -0.19028,-0.695253 0,-0.373241 0.182961,-0.673297 0.182961,-0.307375 0.541565,-0.490336 0.358604,-0.182961 0.892851,-0.182961 h 0.0073 q 0.06587,0 0.197598,0.0073 0.13905,0.0073 0.256146,0.02927 0.504973,0 0.768437,-0.0073 0.270783,-0.01464 0.409833,-0.02927 0.139051,-0.01464 0.270783,-0.03659 0.0805,0 0.117095,0.109777 0.03659,0.102458 0.03659,0.197598 0,0.139051 -0.06587,0.234191 -0.06587,0.09514 -0.219553,0.09514 -0.06587,0 -0.241509,-0.07318 -0.175643,-0.07319 -0.336649,-0.131732 0.248827,0.197598 0.373241,0.453744 0.131732,0.256145 0.131732,0.483017 0,0.687935 -0.468381,1.046539 -0.46838,0.358604 -1.295365,0.358604 z m 0.124413,-0.483018 q 0.241509,0 0.336649,-0.256146 0.102458,-0.256145 0.102458,-0.7538 0,-0.409833 -0.117095,-0.585476 -0.109777,-0.175643 -0.322012,-0.175643 -0.241509,0 -0.336648,0.256146 -0.09514,0.248827 -0.09514,0.687934 0,0.402515 0.102458,0.61475 0.102458,0.212235 0.32933,0.212235 z m -0.687934,1.9833 q 0,0.307375 0.19028,0.51961 0.190279,0.212235 0.680616,0.212235 0.365922,0 0.512291,-0.175643 0.146369,-0.175643 0.146369,-0.387878 0,-0.168324 -0.153687,-0.263464 -0.146369,-0.09514 -0.395197,-0.153687 -0.248827,-0.05855 -0.556202,-0.109777 -0.182961,-0.02927 -0.32933,-0.06587 -0.05123,0.09514 -0.07319,0.204917 -0.02195,0.117095 -0.02195,0.219553 z m 4.65452,-0.19028 q -0.09514,-0.190279 -0.175643,-0.526928 -0.07318,-0.343967 -0.124413,-0.717208 -0.04391,-0.373241 -0.04391,-0.665979 h 0.731845 q 0.117095,0.622068 0.461062,0.973354 0.351286,0.351285 0.812348,0.351285 0.226872,0 0.351286,-0.08782 0.131732,-0.09514 0.19028,-0.226872 0.05855,-0.131732 0.05855,-0.248827 0,-0.241509 -0.161006,-0.417152 -0.161006,-0.175643 -0.409833,-0.314693 -0.241509,-0.146369 -0.490336,-0.263465 -0.644024,-0.314693 -1.017265,-0.717208 -0.373241,-0.409833 -0.373241,-1.024583 0,-0.446425 0.219554,-0.7538 0.219553,-0.314693 0.585476,-0.483018 0.373241,-0.168324 0.834303,-0.168324 0.212235,0 0.497655,0.04391 0.292738,0.04391 0.475699,0.146369 l 0.622068,-0.19028 q 0.102459,0.168324 0.139051,0.446425 0.04391,0.270783 0.05123,0.563521 0.01464,0.292738 0.01464,0.534247 v 0.109775 h -0.607439 q -0.153688,-0.622069 -0.431789,-0.841622 -0.278101,-0.226872 -0.600113,-0.226872 -0.300056,0 -0.446425,0.175643 -0.139051,0.168324 -0.139051,0.42447 0,0.23419 0.124414,0.395196 0.131732,0.161006 0.336648,0.28542 0.204917,0.117095 0.431789,0.23419 0.248827,0.117095 0.51961,0.270783 0.270783,0.146369 0.497655,0.343967 0.23419,0.197598 0.373241,0.468381 0.146368,0.270782 0.146368,0.636705 0,0.402515 -0.204916,0.739163 -0.204917,0.329331 -0.585476,0.534247 -0.380559,0.197598 -0.922125,0.197598 -0.248827,0 -0.548884,-0.05855 -0.292738,-0.05123 -0.629386,-0.19028 z m 4.808205,1.434417 q -0.453744,0 -0.680616,-0.19028 -0.226872,-0.19028 -0.226872,-0.453744 0,-0.175643 0.0805,-0.314693 0.08782,-0.139051 0.219554,-0.197599 0.197598,0.234191 0.585476,0.234191 0.219553,0 0.446425,-0.219554 0.234191,-0.212235 0.387878,-0.673297 h -0.600113 l -1.127041,-2.7371 q -0.08782,-0.212235 -0.153688,-0.322012 -0.06587,-0.109777 -0.292738,-0.109777 0,-0.124414 0.03659,-0.241509 0.03659,-0.117095 0.117095,-0.204916 h 1.727154 q 0.175643,0.190279 0.175643,0.446425 -0.182961,0 -0.263464,0.09514 -0.07318,0.09514 -0.07318,0.241509 0,0.05123 0.0073,0.117095 0.0073,0.05855 0.02927,0.124414 l 0.680616,1.9833 0.483018,-2.07844 q 0.02196,-0.102458 0.02196,-0.175643 0,-0.307375 -0.358604,-0.307375 0,-0.124414 0.02927,-0.241509 0.02927,-0.117095 0.109777,-0.204916 h 1.412461 q 0.0805,0.08782 0.109776,0.204916 0.03659,0.117095 0.03659,0.241509 -0.182962,0 -0.28542,0.08782 -0.09514,0.08782 -0.161006,0.292738 l -0.834303,2.598049 q -0.322012,1.03922 -0.695253,1.522238 -0.365922,0.483018 -0.94408,0.483018 z m 3.234742,-1.544193 q -0.0805,-0.0805 -0.131732,-0.175643 -0.04391,-0.09514 -0.04391,-0.212235 0.219553,0 0.314693,-0.09514 0.09514,-0.09514 0.09514,-0.307375 v -2.136987 q 0,-0.19028 -0.109777,-0.278101 -0.102458,-0.08782 -0.380559,-0.08782 v -0.32933 q 0.168324,-0.09514 0.42447,-0.175643 0.263464,-0.0805 0.504973,-0.124414 0.248827,-0.05123 0.380559,-0.05123 0.153688,0 0.248827,0.09514 0.102459,0.09514 0.117096,0.409833 0.182961,-0.226872 0.461062,-0.365922 0.28542,-0.139051 0.658661,-0.139051 0.512291,0 0.768437,0.263464 0.263464,0.256146 0.263464,0.878214 v 1.997937 q 0,0.358604 0.351286,0.42447 l 0.0073,0.212235 q -0.07318,0.07319 -0.23419,0.131733 -0.161006,0.05123 -0.351286,0.0805 -0.182961,0.02927 -0.343967,0.02927 -0.314693,0 -0.468381,-0.117095 -0.146369,-0.117095 -0.146369,-0.373241 v -2.283356 q 0,-0.300057 -0.131732,-0.417152 -0.131732,-0.117095 -0.322012,-0.117095 -0.300056,0 -0.504973,0.241509 v 2.232127 q 0,0.212235 0.08782,0.307375 0.09514,0.09514 0.314693,0.09514 0,0.219553 -0.168324,0.387878 z m 5.664465,0.05123 q -0.307375,0 -0.563521,-0.109777 -0.256146,-0.117098 -0.417151,-0.395199 -0.153688,-0.278101 -0.153688,-0.761119 v -2.012574 h -0.461062 v -0.446425 q 0.197598,-0.02927 0.373241,-0.248828 0.175643,-0.219553 0.300056,-0.541565 0.131732,-0.322012 0.168325,-0.644023 0.131732,-0.02196 0.241508,-0.02196 0.292738,0 0.402515,0.168325 0.117095,0.168324 0.117095,0.314693 v 0.768437 h 0.848941 q 0,0.175643 -0.02196,0.351286 -0.01464,0.168324 -0.09514,0.300056 h -0.717208 v 2.063803 q 0,0.23419 0.09514,0.314693 0.09514,0.07319 0.241509,0.07319 0.146369,0 0.292738,-0.07319 0.153687,-0.0805 0.241509,-0.182961 0.0805,0.06587 0.109777,0.197598 0.02927,0.124414 0.02927,0.19028 0,0.161006 -0.109776,0.322012 -0.109777,0.161006 -0.343968,0.270782 -0.226872,0.102459 -0.578157,0.102459 z m 4.552069,-0.0073 q -0.358604,0 -0.548884,-0.109776 -0.19028,-0.109777 -0.19028,-0.351286 v -2.356563 q 0,-0.23419 -0.131732,-0.358604 -0.131732,-0.131732 -0.343967,-0.131732 -0.139051,0 -0.300057,0.09514 -0.153687,0.08782 -0.23419,0.241509 v 2.136987 q 0,0.212235 0.08782,0.307375 0.09514,0.08782 0.314694,0.08782 0,0.226872 -0.168325,0.395197 H 82.688854 Q 82.52053,66.98643 82.52053,66.759558 q 0.219553,0 0.307375,-0.08782 0.09514,-0.09514 0.09514,-0.307375 v -3.9666 q 0,-0.168324 -0.09514,-0.263464 -0.09514,-0.09514 -0.395197,-0.09514 v -0.300056 q 0.182961,-0.09514 0.42447,-0.175643 0.248828,-0.0805 0.490336,-0.124414 0.248828,-0.05123 0.409834,-0.05123 0.168324,0 0.241509,0.0805 0.07318,0.07318 0.07318,0.256146 v 1.441734 l -0.01464,0.585476 q 0.19028,-0.241508 0.490336,-0.409833 0.300057,-0.168324 0.680616,-0.168324 1.03922,0 1.03922,1.08313 v 2.049166 q 0,0.373241 0.351286,0.439107 l 0.0073,0.212235 q -0.263464,0.241509 -0.805029,0.241509 z m 2.920043,0.02196 q -0.819666,0 -1.310002,-0.51961 -0.483018,-0.51961 -0.483018,-1.449053 0,-0.636706 0.241509,-1.097768 0.241509,-0.468381 0.651342,-0.717208 0.417152,-0.248827 0.94408,-0.248827 0.65866,0 1.053857,0.387878 0.402515,0.380559 0.402515,1.075812 0,0.278101 -0.09514,0.490336 -0.08782,0.204916 -0.373241,0.204916 h -1.580785 q 0.02196,0.578158 0.263464,0.819667 0.248827,0.241509 0.644023,0.241509 0.248828,0 0.461063,-0.07319 0.212235,-0.0805 0.395196,-0.219553 0.06587,0.05855 0.102458,0.182961 0.04391,0.117095 0.04391,0.197598 0,0.117095 -0.168324,0.292738 -0.161006,0.168324 -0.468381,0.300057 -0.300057,0.131732 -0.724527,0.131732 z m -0.548883,-2.429752 h 0.739163 q 0.124414,0 0.153687,-0.09514 0.03659,-0.09514 0.03659,-0.23419 0,-0.468381 -0.117096,-0.61475 -0.109776,-0.153687 -0.263464,-0.153687 -0.124413,0 -0.248827,0.09514 -0.124414,0.09514 -0.204917,0.336648 -0.0805,0.234191 -0.09514,0.665979 z m 3.893402,2.415089 q -0.307375,0 -0.56352,-0.109777 -0.256146,-0.117095 -0.417152,-0.395196 -0.153688,-0.278101 -0.153688,-0.761119 v -2.012574 h -0.461062 v -0.446425 q 0.197598,-0.02927 0.373241,-0.248828 0.175643,-0.219553 0.300056,-0.541565 0.131733,-0.322012 0.168325,-0.644023 0.131732,-0.02196 0.241509,-0.02196 0.292738,0 0.402514,0.168325 0.117096,0.168324 0.117096,0.314693 v 0.768437 h 0.84894 q 0,0.175643 -0.02196,0.351286 -0.01464,0.168324 -0.09514,0.300056 h -0.717208 v 2.063803 q 0,0.23419 0.09514,0.314693 0.09514,0.07319 0.241509,0.07319 0.146369,0 0.292738,-0.07319 0.153688,-0.0805 0.241509,-0.182961 0.0805,0.06587 0.109777,0.197598 0.02927,0.124414 0.02927,0.19028 0,0.161006 -0.109777,0.322012 -0.109777,0.161006 -0.343967,0.270782 -0.226872,0.102459 -0.578158,0.102459 z m 2.254076,-4.537439 q -0.314694,0 -0.504973,-0.182961 -0.182962,-0.19028 -0.182962,-0.504974 0,-0.307374 0.19028,-0.497654 0.197598,-0.19028 0.512292,-0.19028 0.322011,0 0.504973,0.19028 0.190279,0.19028 0.190279,0.497654 0,0.314694 -0.197598,0.504974 -0.19028,0.182961 -0.512291,0.182961 z m -0.819667,4.48621 q -0.0805,-0.0805 -0.124413,-0.175643 -0.04391,-0.09514 -0.04391,-0.219554 0.212235,0 0.314693,-0.08782 0.102459,-0.09514 0.102459,-0.314693 v -2.122351 q 0,-0.19028 -0.09514,-0.285419 -0.08782,-0.09514 -0.387878,-0.09514 v -0.322013 q 0.109777,-0.06587 0.336649,-0.146369 0.226871,-0.08782 0.490336,-0.146369 0.270782,-0.05855 0.483017,-0.05855 0.168325,0 0.241509,0.0805 0.07318,0.07318 0.07318,0.256146 v 2.846877 q 0,0.219553 0.109776,0.307375 0.109777,0.08782 0.322012,0.08782 0,0.124414 -0.04391,0.219554 -0.04391,0.09514 -0.124414,0.175643 z m 3.915359,0.109776 q -0.534247,0 -0.944081,-0.241509 -0.402514,-0.241508 -0.636705,-0.687934 -0.226872,-0.453744 -0.226872,-1.08313 0,-0.651342 0.248828,-1.112405 0.248827,-0.468381 0.680616,-0.709889 0.431788,-0.248828 0.973353,-0.248828 0.563521,0 0.856259,0.270783 0.292738,0.263464 0.292738,0.651342 0,0.351286 -0.175643,0.541565 -0.175643,0.19028 -0.453744,0.19028 -0.226872,0 -0.380559,-0.168324 -0.153688,-0.168325 -0.153688,-0.409834 0,-0.175642 0.05855,-0.285419 0.06587,-0.109777 0.161006,-0.182961 -0.07318,-0.04391 -0.124414,-0.05123 -0.04391,-0.01464 -0.08782,-0.01464 -0.139051,0 -0.28542,0.109776 -0.146369,0.109777 -0.248827,0.387878 -0.09514,0.278101 -0.09514,0.775756 0,0.805029 0.234191,1.13436 0.23419,0.322011 0.65866,0.322011 0.197598,0 0.395196,-0.05855 0.204917,-0.05855 0.343968,-0.168325 0.05855,0.07318 0.09514,0.182962 0.04391,0.102458 0.04391,0.182961 0,0.153687 -0.168324,0.314693 -0.161006,0.153688 -0.439107,0.256146 -0.278101,0.102458 -0.622068,0.102458 z m 3.395728,0 q -0.0951,-0.190279 -0.17564,-0.526928 -0.0732,-0.343967 -0.12441,-0.717208 -0.0439,-0.373241 -0.0439,-0.665979 h 0.73184 q 0.1171,0.622068 0.46106,0.973354 0.35129,0.351285 0.81235,0.351285 0.22687,0 0.35129,-0.08782 0.13173,-0.09514 0.19028,-0.226872 0.0585,-0.131732 0.0585,-0.248827 0,-0.241509 -0.16101,-0.417152 -0.16101,-0.175643 -0.40983,-0.314693 -0.24151,-0.146369 -0.49034,-0.263465 -0.64402,-0.314693 -1.01726,-0.717208 -0.37324,-0.409833 -0.37324,-1.024583 0,-0.446425 0.21955,-0.7538 0.21955,-0.314693 0.58548,-0.483018 0.37324,-0.168324 0.8343,-0.168324 0.21223,0 0.49765,0.04391 0.29274,0.04391 0.4757,0.146369 l 0.62207,-0.19028 q 0.10246,0.168324 0.13905,0.446425 0.0439,0.270783 0.0512,0.563521 0.0146,0.292738 0.0146,0.534247 v 0.109777 h -0.60743 q -0.15369,-0.622069 -0.43179,-0.841622 -0.2781,-0.226872 -0.60011,-0.226872 -0.30006,0 -0.44643,0.175643 -0.13905,0.168324 -0.13905,0.42447 0,0.23419 0.12442,0.395196 0.13173,0.161006 0.33664,0.28542 0.20492,0.117095 0.43179,0.23419 0.24883,0.117095 0.51961,0.270783 0.27079,0.146369 0.49766,0.343967 0.23419,0.197598 0.37324,0.468381 0.14637,0.270782 0.14637,0.636705 0,0.402515 -0.20492,0.739163 -0.20492,0.329331 -0.58547,0.534247 -0.38056,0.197598 -0.92213,0.197598 -0.24883,0 -0.54888,-0.05855 -0.29274,-0.05123 -0.62939,-0.19028 z m 4.02513,1.280729 q -0.0805,-0.0805 -0.13173,-0.175643 -0.0439,-0.09514 -0.0439,-0.212235 0.21955,0 0.2781,-0.09514 0.0659,-0.09514 0.0659,-0.307375 v -3.505537 q 0,-0.19028 -0.10978,-0.278101 -0.10246,-0.08782 -0.38056,-0.08782 v -0.32933 q 0.16101,-0.09514 0.38056,-0.175643 0.22687,-0.0805 0.43911,-0.124413 0.21224,-0.05123 0.33665,-0.05123 0.14637,0 0.24151,0.05855 0.10246,0.05855 0.14637,0.234191 0.16832,-0.161006 0.3952,-0.226872 0.23419,-0.06587 0.49033,-0.06587 0.38788,0 0.72453,0.204916 0.33665,0.197598 0.54156,0.600113 0.21224,0.402515 0.21224,1.024583 0,0.695253 -0.27078,1.192907 -0.26347,0.490337 -0.71721,0.753801 -0.44643,0.256146 -0.99531,0.256146 -0.0585,0 -0.13174,-0.0073 -0.0732,0 -0.15368,-0.0073 v 0.534246 q 0,0.212236 0.15368,0.307375 0.15369,0.09514 0.3147,0.09514 0,0.219554 -0.16832,0.387878 z m 1.59542,-1.844249 q 0.30006,0 0.51229,-0.351286 0.21224,-0.351286 0.21224,-1.141678 0,-0.504973 -0.10978,-0.797711 -0.10246,-0.300057 -0.28542,-0.42447 -0.18296,-0.131732 -0.40251,-0.131732 -0.1171,0 -0.20492,0.04391 v 2.729782 q 0.12442,0.07319 0.2781,0.07319 z m 4.20079,0.51961 q -0.81967,0 -1.31001,-0.51961 -0.48301,-0.51961 -0.48301,-1.449053 0,-0.636706 0.24151,-1.097768 0.2415,-0.468381 0.65134,-0.717208 0.41715,-0.248827 0.94408,-0.248827 0.65866,0 1.05385,0.387878 0.40252,0.380559 0.40252,1.075812 0,0.278101 -0.0951,0.490336 -0.0878,0.204916 -0.37324,0.204916 h -1.58079 q 0.022,0.578158 0.26347,0.819667 0.24883,0.241509 0.64402,0.241509 0.24883,0 0.46106,-0.07319 0.21224,-0.0805 0.3952,-0.219553 0.0659,0.05855 0.10246,0.182961 0.0439,0.117095 0.0439,0.197598 0,0.117095 -0.16833,0.292738 -0.161,0.168324 -0.46838,0.300057 -0.30005,0.131732 -0.72452,0.131732 z m -0.54889,-2.429726 h 0.73917 q 0.12441,0 0.15368,-0.09514 0.0366,-0.09514 0.0366,-0.23419 0,-0.468381 -0.1171,-0.61475 -0.10978,-0.153687 -0.26346,-0.153687 -0.12442,0 -0.24883,0.09514 -0.12441,0.09514 -0.20492,0.336648 -0.0805,0.234191 -0.0951,0.665979 z m 4.23005,2.429726 q -0.81966,0 -1.31,-0.51961 -0.48302,-0.51961 -0.48302,-1.449053 0,-0.636706 0.24151,-1.097768 0.24151,-0.468381 0.65135,-0.717208 0.41715,-0.248827 0.94408,-0.248827 0.65866,0 1.05385,0.387878 0.40252,0.380559 0.40252,1.075812 0,0.278101 -0.0951,0.490336 -0.0878,0.204916 -0.37324,0.204916 h -1.58079 q 0.022,0.578158 0.26347,0.819667 0.24882,0.241509 0.64402,0.241509 0.24883,0 0.46106,-0.07319 0.21224,-0.0805 0.3952,-0.219553 0.0659,0.05855 0.10246,0.182961 0.0439,0.117095 0.0439,0.197598 0,0.117095 -0.16833,0.292738 -0.161,0.168324 -0.46838,0.300057 -0.30005,0.131732 -0.72453,0.131732 z m -0.54888,-2.429726 h 0.73916 q 0.12442,0 0.15369,-0.09514 0.0366,-0.09514 0.0366,-0.23419 0,-0.468381 -0.11709,-0.61475 -0.10978,-0.153687 -0.26347,-0.153687 -0.12441,0 -0.24882,0.09514 -0.12442,0.09514 -0.20492,0.336648 -0.0805,0.234191 -0.0951,0.665979 z m 4.24469,2.473636 q -0.53425,0 -0.94408,-0.241509 -0.40252,-0.241508 -0.63671,-0.687934 -0.22687,-0.453744 -0.22687,-1.08313 0,-0.651342 0.24883,-1.112405 0.24883,-0.468381 0.68062,-0.709889 0.43178,-0.248828 0.97335,-0.248828 0.56352,0 0.85626,0.270783 0.29274,0.263464 0.29274,0.651342 0,0.351286 -0.17565,0.541565 -0.17564,0.19028 -0.45374,0.19028 -0.22687,0 -0.38056,-0.168324 -0.15369,-0.168325 -0.15369,-0.409834 0,-0.175642 0.0586,-0.285419 0.0659,-0.109777 0.16101,-0.182961 -0.0732,-0.04391 -0.12442,-0.05123 -0.0439,-0.01464 -0.0878,-0.01464 -0.13905,0 -0.28542,0.109776 -0.14637,0.109777 -0.24883,0.387878 -0.0951,0.278101 -0.0951,0.775756 0,0.805029 0.23419,1.13436 0.23419,0.322011 0.65867,0.322011 0.19759,0 0.39519,-0.05855 0.20492,-0.05855 0.34397,-0.168325 0.0585,0.07318 0.0951,0.182962 0.0439,0.102458 0.0439,0.182961 0,0.153687 -0.16833,0.314693 -0.161,0.153688 -0.4391,0.256146 -0.2781,0.102458 -0.62207,0.102458 z m 4.77893,-0.06587 q -0.3586,0 -0.54888,-0.109776 -0.19028,-0.109777 -0.19028,-0.351286 v -2.356537 q 0,-0.23419 -0.13174,-0.358604 -0.13173,-0.131732 -0.34396,-0.131732 -0.13905,0 -0.30006,0.09514 -0.15369,0.08782 -0.23419,0.241509 v 2.136987 q 0,0.212235 0.0878,0.307375 0.0951,0.08782 0.3147,0.08782 0,0.226872 -0.16833,0.395197 h -1.61738 q -0.16832,-0.168325 -0.16832,-0.395197 0.21955,0 0.30737,-0.08782 0.0951,-0.09514 0.0951,-0.307375 v -3.9666 q 0,-0.168324 -0.0951,-0.263464 -0.0951,-0.09514 -0.39519,-0.09514 v -0.300056 q 0.18296,-0.09514 0.42447,-0.175643 0.24883,-0.0805 0.49033,-0.124414 0.24883,-0.05123 0.40984,-0.05123 0.16832,0 0.24151,0.0805 0.0732,0.07318 0.0732,0.256146 v 1.441734 l -0.0146,0.585476 q 0.19028,-0.241508 0.49034,-0.409833 0.30006,-0.168324 0.68062,-0.168324 1.03922,0 1.03922,1.08313 v 2.049166 q 0,0.373241 0.35128,0.439107 l 0.007,0.212235 q -0.26346,0.241509 -0.80503,0.241509 z m 5.77424,2.246764 q -0.80503,0 -1.45637,-0.322011 -0.64402,-0.322012 -1.02458,-0.951399 -0.37324,-0.622068 -0.37324,-1.522237 0,-0.768438 0.2781,-1.427098 0.2781,-0.658661 0.76843,-1.141678 0.49766,-0.490337 1.14168,-0.761119 0.65134,-0.278101 1.39783,-0.278101 0.79039,0 1.39782,0.322012 0.60743,0.322011 0.9514,0.922124 0.34397,0.592795 0.34397,1.427098 0,0.600113 -0.1976,1.090449 -0.19028,0.483018 -0.5928,0.775756 -0.39519,0.292738 -1.01726,0.292738 -0.31469,0 -0.5562,-0.08782 -0.23419,-0.0805 -0.44643,-0.263464 -0.16832,0.124414 -0.41715,0.219554 -0.24883,0.09514 -0.54888,0.09514 -0.54157,0 -0.79772,-0.351285 -0.25614,-0.343967 -0.25614,-0.90017 0,-0.504973 0.19028,-0.914806 0.1976,-0.409833 0.54156,-0.644023 0.35129,-0.241509 0.81967,-0.241509 0.45374,0 0.80503,0.212235 0.11709,-0.05855 0.25615,-0.08782 0.13905,-0.03659 0.2415,-0.03659 h 0.49034 l -0.28542,1.778384 q -0.0146,0.06587 -0.022,0.131732 0,0.05855 0,0.117095 0,0.365922 0.28541,0.365922 0.2342,0 0.41716,-0.212235 0.19028,-0.212235 0.30005,-0.56352 0.10978,-0.351286 0.10978,-0.775756 0,-0.717208 -0.28542,-1.170952 -0.28542,-0.453744 -0.76112,-0.665979 -0.46838,-0.219553 -1.01726,-0.219553 -0.57816,0 -1.09045,0.212235 -0.50498,0.212235 -0.90017,0.607431 -0.38788,0.395196 -0.61475,0.94408 -0.21955,0.541565 -0.21955,1.200226 0,1.08313 0.62206,1.646651 0.62939,0.570839 1.75643,0.570839 0.49766,0 0.88553,-0.09514 0.38788,-0.09514 0.62939,-0.226872 l 0.0732,0.117095 q 0.0366,0.05123 0.0439,0.09514 0.007,0.05123 0.007,0.08782 0,0.102458 -0.0512,0.13905 -0.27811,0.182962 -0.75381,0.336649 -0.47569,0.153687 -1.06849,0.153687 z m 0.20492,-2.202853 q 0.10246,0 0.17564,-0.02927 0.0732,-0.02927 0.12441,-0.07318 l 0.24151,-1.675925 q -0.14637,-0.07318 -0.28542,-0.07318 -0.26346,0 -0.46838,0.307375 -0.1976,0.307375 -0.1976,0.856259 0,0.358604 0.10246,0.526928 0.10246,0.161006 0.30738,0.161006 z m 5.57663,-0.08782 q -0.161,-0.182962 -0.161,-0.468381 0.24151,0 0.33665,-0.0805 0.10246,-0.0805 0.10246,-0.28542 v -3.439671 q 0,-0.204917 -0.10246,-0.28542 -0.0951,-0.08782 -0.33665,-0.08782 0,-0.278101 0.161,-0.461062 h 1.77839 q 0.0732,0.08782 0.11709,0.212235 0.0439,0.124413 0.0439,0.248827 -0.2415,0 -0.34396,0.08782 -0.0951,0.0805 -0.0951,0.28542 v 3.439671 q 0,0.204917 0.0951,0.28542 0.10246,0.0805 0.34396,0.0805 0,0.131732 -0.0439,0.256146 -0.0439,0.124413 -0.11709,0.212235 z m 2.46631,0 q -0.0805,-0.0805 -0.13173,-0.175643 -0.0439,-0.09514 -0.0439,-0.212235 0.21955,0 0.31469,-0.09514 0.0951,-0.09514 0.0951,-0.307375 v -2.136987 q 0,-0.19028 -0.10977,-0.278101 -0.10246,-0.08782 -0.38056,-0.08782 v -0.32933 q 0.16832,-0.09514 0.42447,-0.175643 0.26346,-0.0805 0.50497,-0.124414 0.24883,-0.05123 0.38056,-0.05123 0.15369,0 0.24883,0.09514 0.10246,0.09514 0.11709,0.409833 0.18296,-0.226872 0.46106,-0.365922 0.28542,-0.139051 0.65867,-0.139051 0.51229,0 0.76843,0.263464 0.26347,0.256146 0.26347,0.878214 v 1.997937 q 0,0.358604 0.35128,0.42447 l 0.007,0.212235 q -0.0732,0.07319 -0.23419,0.131733 -0.16101,0.05123 -0.35129,0.0805 -0.18296,0.02927 -0.34396,0.02927 -0.3147,0 -0.46838,-0.117095 -0.14637,-0.117095 -0.14637,-0.373241 v -2.283356 q 0,-0.300057 -0.13173,-0.417152 -0.13174,-0.117095 -0.32202,-0.117095 -0.30005,0 -0.50497,0.241509 v 2.232127 q 0,0.212235 0.0878,0.307375 0.0951,0.09514 0.3147,0.09514 0,0.219553 -0.16833,0.387878 z m 5.66446,0.05123 q -0.30737,0 -0.56352,-0.109777 -0.25614,-0.117095 -0.41715,-0.395196 -0.15369,-0.278101 -0.15369,-0.761119 v -2.012574 h -0.46106 v -0.446425 q 0.1976,-0.02927 0.37324,-0.248828 0.17565,-0.219553 0.30006,-0.541565 0.13173,-0.322012 0.16832,-0.644023 0.13174,-0.02196 0.24151,-0.02196 0.29274,0 0.40252,0.168325 0.11709,0.168324 0.11709,0.314693 v 0.768437 h 0.84894 q 0,0.175643 -0.0219,0.351286 -0.0146,0.168324 -0.0951,0.300056 h -0.71721 v 2.063803 q 0,0.23419 0.0951,0.314693 0.0951,0.07319 0.24151,0.07319 0.14637,0 0.29274,-0.07319 0.15368,-0.0805 0.2415,-0.182961 0.0805,0.06587 0.10978,0.197598 0.0293,0.124414 0.0293,0.19028 0,0.161006 -0.10978,0.322012 -0.10978,0.161006 -0.34397,0.270782 -0.22687,0.102459 -0.57816,0.102459 z m 2.98591,0.01464 q -0.81966,0 -1.31,-0.51961 -0.48302,-0.51961 -0.48302,-1.449053 0,-0.636706 0.24151,-1.097768 0.24151,-0.468381 0.65134,-0.717208 0.41716,-0.248827 0.94408,-0.248827 0.65867,0 1.05386,0.387878 0.40252,0.380559 0.40252,1.075812 0,0.278101 -0.0951,0.490336 -0.0878,0.204916 -0.37324,0.204916 h -1.58079 q 0.022,0.578158 0.26346,0.819667 0.24883,0.241509 0.64403,0.241509 0.24883,0 0.46106,-0.07319 0.21224,-0.0805 0.3952,-0.219553 0.0659,0.05855 0.10246,0.182961 0.0439,0.117095 0.0439,0.197598 0,0.117095 -0.16833,0.292738 -0.161,0.168324 -0.46838,0.300057 -0.30006,0.131732 -0.72453,0.131732 z m -0.54888,-2.429726 h 0.73916 q 0.12442,0 0.15369,-0.09514 0.0366,-0.09514 0.0366,-0.23419 0,-0.468381 -0.11709,-0.61475 -0.10978,-0.153687 -0.26347,-0.153687 -0.12441,0 -0.24882,0.09514 -0.12442,0.09514 -0.20492,0.336648 -0.0805,0.234191 -0.0951,0.665979 z m 2.60537,2.36386 q -0.0805,-0.0805 -0.12442,-0.175643 -0.0439,-0.09514 -0.0439,-0.219554 0.21224,0 0.30006,-0.08782 0.0951,-0.09514 0.0951,-0.314693 v -2.115034 q 0,-0.19028 -0.10246,-0.270783 -0.10246,-0.08782 -0.38056,-0.08782 v -0.32933 q 0.17564,-0.102458 0.41715,-0.175643 0.24151,-0.0805 0.4757,-0.124413 0.23419,-0.05123 0.36593,-0.05123 0.16832,0 0.2415,0.117095 0.0805,0.117095 0.0805,0.504973 0.0805,-0.153688 0.23419,-0.300057 0.161,-0.153687 0.3586,-0.248827 0.1976,-0.09514 0.40983,-0.09514 0.34397,0 0.49034,0.175643 0.14637,0.175643 0.14637,0.453744 0,0.314693 -0.16101,0.512291 -0.161,0.197599 -0.44642,0.197599 -0.24883,0 -0.3952,-0.139051 -0.14637,-0.146369 -0.14637,-0.32933 0,-0.117095 0.022,-0.182961 -0.1171,0.02927 -0.22687,0.0805 -0.10978,0.04391 -0.21956,0.146369 v 2.195534 q 0,0.168325 0.0512,0.270783 0.0512,0.102458 0.1976,0.153688 0.15369,0.04391 0.45374,0.04391 0,0.124414 -0.0293,0.219554 -0.0293,0.09514 -0.10978,0.175643 z m 4.61793,0.07318 q -0.26347,0 -0.53425,-0.05855 -0.26347,-0.05855 -0.49034,-0.168324 -0.21955,-0.109777 -0.3586,-0.270783 -0.13905,-0.168324 -0.13905,-0.380559 0,-0.256146 0.14637,-0.409833 0.14637,-0.161006 0.37324,-0.161006 0.20491,0 0.34397,0.131732 0.14636,0.131732 0.14636,0.343967 0,0.09514 -0.0293,0.168325 -0.0293,0.06587 -0.0878,0.146369 0.0659,0.06587 0.23419,0.09514 0.16832,0.02927 0.32933,0.02927 0.25615,0 0.3952,-0.09514 0.13905,-0.09514 0.13905,-0.23419 0,-0.219554 -0.23419,-0.373241 -0.23419,-0.161006 -0.53425,-0.322012 -0.27078,-0.146369 -0.54157,-0.307375 -0.26346,-0.168324 -0.44642,-0.417151 -0.17564,-0.248828 -0.17564,-0.629387 0,-0.483018 0.40251,-0.797711 0.40252,-0.314693 1.14168,-0.314693 0.51229,0 0.81967,0.131732 0.30737,0.124413 0.44642,0.322012 0.13905,0.190279 0.13905,0.402514 0,0.226872 -0.14637,0.365923 -0.13905,0.131732 -0.34396,0.131732 -0.18297,0 -0.32202,-0.109777 -0.13905,-0.117095 -0.13905,-0.300056 0,-0.08782 0.0293,-0.19028 0.0293,-0.102458 0.0805,-0.168324 -0.0805,-0.06587 -0.19028,-0.08782 -0.10246,-0.02927 -0.24883,-0.02927 -0.24151,0 -0.37324,0.117096 -0.12441,0.109776 -0.12441,0.270782 0,0.248828 0.23419,0.409833 0.24151,0.161006 0.53425,0.314694 0.27078,0.13905 0.52692,0.300056 0.26347,0.161006 0.43911,0.402515 0.17564,0.241509 0.17564,0.622068 0,0.409833 -0.23419,0.658661 -0.23419,0.241509 -0.60743,0.351285 -0.36592,0.109777 -0.77575,0.109777 z m 2.16625,1.317321 q -0.0805,-0.0805 -0.13174,-0.175643 -0.0439,-0.09514 -0.0439,-0.212235 0.21956,0 0.27811,-0.09514 0.0659,-0.09514 0.0659,-0.307375 v -3.505537 q 0,-0.19028 -0.10978,-0.278101 -0.10245,-0.08782 -0.38055,-0.08782 v -0.32933 q 0.161,-0.09514 0.38055,-0.175643 0.22688,-0.0805 0.43911,-0.124413 0.21224,-0.05123 0.33665,-0.05123 0.14637,0 0.24151,0.05855 0.10246,0.05855 0.14637,0.234191 0.16832,-0.161006 0.39519,-0.226872 0.23419,-0.06587 0.49034,-0.06587 0.38788,0 0.72453,0.204916 0.33665,0.197598 0.54156,0.600113 0.21224,0.402515 0.21224,1.024583 0,0.695253 -0.27079,1.192907 -0.26346,0.490337 -0.7172,0.753801 -0.44643,0.256146 -0.99531,0.256146 -0.0585,0 -0.13173,-0.0073 -0.0732,0 -0.15369,-0.0073 v 0.534246 q 0,0.212236 0.15369,0.307375 0.15368,0.09514 0.31469,0.09514 0,0.219554 -0.16833,0.387878 z m 1.59542,-1.844249 q 0.30006,0 0.51229,-0.351286 0.21224,-0.351286 0.21224,-1.141678 0,-0.504973 -0.10978,-0.797711 -0.10246,-0.300057 -0.28542,-0.42447 -0.18296,-0.131732 -0.40252,-0.131732 -0.11709,0 -0.20491,0.04391 v 2.729782 q 0.12441,0.07319 0.2781,0.07319 z m 4.20077,0.51961 q -0.81967,0 -1.31,-0.51961 -0.48302,-0.51961 -0.48302,-1.449053 0,-0.636706 0.24151,-1.097768 0.24151,-0.468381 0.65134,-0.717208 0.41715,-0.248827 0.94408,-0.248827 0.65866,0 1.05386,0.387878 0.40251,0.380559 0.40251,1.075812 0,0.278101 -0.0951,0.490336 -0.0878,0.204916 -0.37324,0.204916 h -1.58078 q 0.022,0.578158 0.26346,0.819667 0.24883,0.241509 0.64402,0.241509 0.24883,0 0.46107,-0.07319 0.21223,-0.0805 0.39519,-0.219553 0.0659,0.05855 0.10246,0.182961 0.0439,0.117095 0.0439,0.197598 0,0.117095 -0.16832,0.292738 -0.16101,0.168324 -0.46838,0.300057 -0.30006,0.131732 -0.72453,0.131732 z m -0.54888,-2.429726 h 0.73916 q 0.12441,0 0.15369,-0.09514 0.0366,-0.09514 0.0366,-0.23419 0,-0.468381 -0.1171,-0.61475 -0.10977,-0.153687 -0.26346,-0.153687 -0.12441,0 -0.24883,0.09514 -0.12441,0.09514 -0.20491,0.336648 -0.0805,0.234191 -0.0951,0.665979 z m 4.23005,2.429726 q -0.81967,0 -1.31,-0.51961 -0.48302,-0.51961 -0.48302,-1.449053 0,-0.636706 0.24151,-1.097768 0.24151,-0.468381 0.65134,-0.717208 0.41715,-0.248827 0.94408,-0.248827 0.65866,0 1.05386,0.387878 0.40251,0.380559 0.40251,1.075812 0,0.278101 -0.0951,0.490336 -0.0878,0.204916 -0.37324,0.204916 h -1.58079 q 0.022,0.578158 0.26347,0.819667 0.24883,0.241509 0.64402,0.241509 0.24883,0 0.46106,-0.07319 0.21224,-0.0805 0.3952,-0.219553 0.0659,0.05855 0.10246,0.182961 0.0439,0.117095 0.0439,0.197598 0,0.117095 -0.16832,0.292738 -0.16101,0.168324 -0.46839,0.300057 -0.30005,0.131732 -0.72452,0.131732 z m -0.54889,-2.429726 h 0.73917 q 0.12441,0 0.15368,-0.09514 0.0366,-0.09514 0.0366,-0.23419 0,-0.468381 -0.1171,-0.61475 -0.10977,-0.153687 -0.26346,-0.153687 -0.12442,0 -0.24883,0.09514 -0.12441,0.09514 -0.20492,0.336648 -0.0805,0.234191 -0.0951,0.665979 z m 4.24469,2.473636 q -0.53424,0 -0.94408,-0.241509 -0.40251,-0.241508 -0.6367,-0.687934 -0.22687,-0.453744 -0.22687,-1.08313 0,-0.651342 0.24882,-1.112405 0.24883,-0.468381 0.68062,-0.709889 0.43179,-0.248828 0.97335,-0.248828 0.56352,0 0.85626,0.270783 0.29274,0.263464 0.29274,0.651342 0,0.351286 -0.17564,0.541565 -0.17565,0.19028 -0.45375,0.19028 -0.22687,0 -0.38056,-0.168324 -0.15368,-0.168325 -0.15368,-0.409834 0,-0.175642 0.0585,-0.285419 0.0659,-0.109777 0.16101,-0.182961 -0.0732,-0.04391 -0.12441,-0.05123 -0.0439,-0.01464 -0.0878,-0.01464 -0.13905,0 -0.28542,0.109776 -0.14636,0.109777 -0.24882,0.387878 -0.0951,0.278101 -0.0951,0.775756 0,0.805029 0.23419,1.13436 0.23419,0.322011 0.65866,0.322011 0.1976,0 0.39519,-0.05855 0.20492,-0.05855 0.34397,-0.168325 0.0585,0.07318 0.0951,0.182962 0.0439,0.102458 0.0439,0.182961 0,0.153687 -0.16832,0.314693 -0.16101,0.153688 -0.43911,0.256146 -0.2781,0.102458 -0.62207,0.102458 z m 4.77894,-0.06587 q -0.3586,0 -0.54888,-0.109776 -0.19028,-0.109777 -0.19028,-0.351286 v -2.356534 q 0,-0.23419 -0.13173,-0.358604 -0.13174,-0.131732 -0.34397,-0.131732 -0.13905,0 -0.30006,0.09514 -0.15369,0.08782 -0.23419,0.241509 v 2.136987 q 0,0.212235 0.0878,0.307375 0.0951,0.08782 0.3147,0.08782 0,0.226872 -0.16833,0.395197 h -1.61738 q -0.16832,-0.168325 -0.16832,-0.395197 0.21955,0 0.30737,-0.08782 0.0951,-0.09514 0.0951,-0.307375 v -3.9666 q 0,-0.168324 -0.0951,-0.263464 -0.0951,-0.09514 -0.39519,-0.09514 v -0.300056 q 0.18296,-0.09514 0.42447,-0.175643 0.24883,-0.0805 0.49033,-0.124414 0.24883,-0.05123 0.40984,-0.05123 0.16832,0 0.24151,0.0805 0.0732,0.07318 0.0732,0.256146 v 1.441734 l -0.0146,0.585476 q 0.19028,-0.241508 0.49034,-0.409833 0.30006,-0.168324 0.68062,-0.168324 1.03922,0 1.03922,1.08313 v 2.049166 q 0,0.373241 0.35128,0.439107 l 0.007,0.212235 q -0.26346,0.241509 -0.80503,0.241509 z m 2.81758,0.03659 -0.23419,-0.182962 q 0.0805,-0.431788 0.2781,-0.775755 0.1976,-0.343968 0.46106,-0.636706 0.26347,-0.292738 0.53425,-0.556202 0.2781,-0.270782 0.51229,-0.534247 0.23419,-0.270782 0.38056,-0.570839 0.14637,-0.307375 0.14637,-0.665979 0,-0.439107 -0.21224,-0.636705 -0.20491,-0.197598 -0.51229,-0.197598 -0.42447,0 -0.65866,0.322012 0.19028,0.05123 0.30738,0.219553 0.11709,0.168325 0.11709,0.343968 0,0.270782 -0.21223,0.439107 -0.21224,0.161005 -0.4757,0.161005 -0.27078,0 -0.48302,-0.190279 -0.21223,-0.197598 -0.21223,-0.556202 0,-0.336649 0.22687,-0.61475 0.23419,-0.28542 0.64402,-0.461063 0.41715,-0.175642 0.97336,-0.175642 0.50497,0 0.9148,0.161005 0.40983,0.161006 0.65134,0.490337 0.24883,0.322011 0.24883,0.819666 0,0.395196 -0.15369,0.702571 -0.15368,0.300057 -0.40983,0.541565 -0.24883,0.234191 -0.5562,0.439107 -0.30738,0.197599 -0.62207,0.395197 -0.30738,0.190279 -0.57816,0.395196 -0.26346,0.204917 -0.4391,0.461062 0.21223,-0.09514 0.51961,-0.161005 0.31469,-0.07318 0.57815,-0.07318 h 0.38788 q 0.35129,0 0.62939,-0.161006 0.2781,-0.168324 0.3586,-0.461062 h 0.20492 q 0.11709,0.102458 0.19028,0.292738 0.0732,0.190279 0.0732,0.402515 0,0.226871 -0.11709,0.461062 -0.10978,0.226872 -0.38056,0.380559 -0.27079,0.146369 -0.76112,0.146369 -0.25615,0 -0.46838,-0.02927 -0.21224,-0.02927 -0.43179,-0.05855 -0.21955,-0.02927 -0.51229,-0.02927 -0.23419,0 -0.46838,0.03659 -0.23419,0.03659 -0.43179,0.117096 l 0.007,-0.0073 z m 6.19141,-0.0073 q -0.63671,0 -1.10509,-0.256146 -0.46838,-0.256145 -0.72452,-0.819666 -0.25615,-0.570839 -0.25615,-1.500282 0,-0.987991 0.26347,-1.573467 0.26346,-0.592794 0.73184,-0.84894 0.4757,-0.256146 1.10509,-0.256146 0.6367,0 1.10508,0.263464 0.4757,0.256146 0.73185,0.84894 0.25614,0.585476 0.25614,1.573467 0,0.936762 -0.26346,1.507601 -0.26347,0.56352 -0.73916,0.812348 -0.46839,0.248827 -1.10509,0.248827 z m 0,-0.512291 q 0.16101,0 0.30737,-0.0805 0.14637,-0.0805 0.25615,-0.292738 0.10978,-0.219554 0.16832,-0.629387 0.0659,-0.409833 0.0659,-1.068494 0,-0.702571 -0.0659,-1.134359 -0.0585,-0.431789 -0.16832,-0.651343 -0.10978,-0.219553 -0.24883,-0.292738 -0.13905,-0.0805 -0.30005,-0.0805 -0.16101,0 -0.30738,0.0805 -0.13905,0.07319 -0.24883,0.300057 -0.10977,0.219553 -0.17564,0.651342 -0.0659,0.431789 -0.0659,1.148997 0,0.651342 0.0585,1.053856 0.0659,0.402515 0.17565,0.622069 0.10977,0.212235 0.24882,0.292738 0.14637,0.0805 0.30006,0.0805 z m 2.7883,0.51961 -0.23419,-0.182962 q 0.0805,-0.431788 0.2781,-0.775755 0.19759,-0.343968 0.46106,-0.636706 0.26346,-0.292738 0.53425,-0.556202 0.2781,-0.270782 0.51229,-0.534247 0.23419,-0.270782 0.38056,-0.570839 0.14637,-0.307375 0.14637,-0.665979 0,-0.439107 -0.21224,-0.636705 -0.20492,-0.197598 -0.51229,-0.197598 -0.42447,0 -0.65866,0.322012 0.19028,0.05123 0.30737,0.219553 0.1171,0.168325 0.1171,0.343968 0,0.270782 -0.21224,0.439107 -0.21223,0.161005 -0.4757,0.161005 -0.27078,0 -0.48301,-0.190279 -0.21224,-0.197598 -0.21224,-0.556202 0,-0.336649 0.22687,-0.61475 0.23419,-0.28542 0.64403,-0.461063 0.41715,-0.175642 0.97335,-0.175642 0.50497,0 0.91481,0.161005 0.40983,0.161006 0.65134,0.490337 0.24883,0.322011 0.24883,0.819666 0,0.395196 -0.15369,0.702571 -0.15369,0.300057 -0.40983,0.541565 -0.24883,0.234191 -0.55621,0.439107 -0.30737,0.197599 -0.62206,0.395197 -0.30738,0.190279 -0.57816,0.395196 -0.26347,0.204917 -0.43911,0.461062 0.21224,-0.09514 0.51961,-0.161005 0.31469,-0.07318 0.57816,-0.07318 h 0.38788 q 0.35128,0 0.62938,-0.161006 0.2781,-0.168324 0.35861,-0.461062 h 0.20491 q 0.1171,0.102458 0.19028,0.292738 0.0732,0.190279 0.0732,0.402515 0,0.226871 -0.1171,0.461062 -0.10977,0.226872 -0.38056,0.380559 -0.27078,0.146369 -0.76112,0.146369 -0.25614,0 -0.46838,-0.02927 -0.21223,-0.02927 -0.43178,-0.05855 -0.21956,-0.02927 -0.5123,-0.02927 -0.23419,0 -0.46838,0.03659 -0.23419,0.03659 -0.43179,0.117096 l 0.007,-0.0073 z m 6.10356,-0.02196 q -0.60011,0 -1.06117,-0.278101 -0.45375,-0.285419 -0.70989,-0.841622 -0.25615,-0.556202 -0.25615,-1.390505 0,-0.936762 0.30737,-1.536875 0.30738,-0.607431 0.81967,-0.892851 0.51229,-0.292738 1.12704,-0.292738 0.43179,0 0.78308,0.117096 0.35128,0.109776 0.56352,0.343967 0.21223,0.226872 0.21223,0.570839 0,0.278101 -0.161,0.468381 -0.16101,0.190279 -0.45375,0.190279 -0.26346,0 -0.4391,-0.153687 -0.17565,-0.153687 -0.17565,-0.387878 0,-0.117095 0.0732,-0.23419 0.0805,-0.117095 0.20491,-0.182962 -0.0951,-0.109776 -0.26346,-0.161005 -0.16101,-0.05855 -0.34397,-0.05855 -0.26346,0 -0.49033,0.168324 -0.21956,0.168325 -0.35861,0.556203 -0.13173,0.387877 -0.13173,1.061175 0,0.05855 0.007,0.0805 0.19028,-0.182962 0.49765,-0.278101 0.3147,-0.102459 0.65135,-0.102459 0.45374,0 0.81234,0.182962 0.36593,0.182961 0.57084,0.519609 0.21224,0.329331 0.21224,0.797712 0,0.483017 -0.25615,0.878214 -0.24883,0.387877 -0.70257,0.622068 -0.44642,0.23419 -1.03922,0.23419 z m 0.022,-0.548884 q 0.19028,0 0.3586,-0.08782 0.17564,-0.09514 0.28542,-0.314693 0.10978,-0.219554 0.10978,-0.607432 0,-0.585476 -0.24151,-0.826985 -0.23419,-0.248827 -0.5562,-0.248827 -0.24883,0 -0.43911,0.09514 -0.19028,0.09514 -0.29274,0.28542 -0.007,0.07318 -0.007,0.153687 0,0.07318 0,0.146369 0,0.534247 0.10978,0.841622 0.11709,0.307375 0.29274,0.439107 0.18296,0.124413 0.38056,0.124413 z"
         id="text1"
         aria-label="Safeguarding Synthetic Speech @ Interspeech 2026" />
    </g>
  </g>
</svg>
